<?xml version="1.0" encoding="UTF-8"?>
<svg width="148px" height="149px" viewBox="0 0 148 149" version="1.1" xmlns="http://www.w3.org/2000/svg" xmlns:xlink="http://www.w3.org/1999/xlink">
    <!-- Generator: sketchtool 57.1 (101010) - https://sketch.com -->
    <title>3A9676AA-6658-4379-861C-01CA19D27035</title>
    <desc>Created with sketchtool.</desc>
    <g id="Layouts" stroke="none" stroke-width="1" fill="none" fill-rule="evenodd">
        <g id="merkle" transform="translate(-263.000000, -713.000000)" fill="#1E8CC3">
            <path d="M410.994729,787.580929 C410.847586,784.388837 408.405006,781.696113 405.109914,781.696113 L401.666759,781.696113 C400.637674,770.441484 396.723661,759.392855 390.117842,750.197314 C388.147041,747.445732 386.013462,744.783357 383.659167,742.355491 C381.246936,739.854973 378.613069,737.647822 375.862407,735.543672 C370.712389,731.601149 364.945288,728.599424 358.854472,726.378479 C353.720087,724.495043 348.291416,723.317896 342.803888,722.832323 L342.803888,719.610803 L342.803888,719.390088 C342.803888,716.314791 340.096449,713.358129 336.919072,713.505272 C333.726061,713.652416 331.034256,716.094076 331.034256,719.390088 L331.034256,722.861752 C327.031956,723.22961 323.089433,723.950613 319.249911,725.039474 C306.876991,728.555281 295.44487,735.867388 287.250823,745.81336 C285.043672,748.475736 282.983665,751.286175 281.218864,754.257551 C279.438429,757.229848 277.98171,760.363082 276.657419,763.570808 C274.28933,769.337909 272.906183,775.487582 272.332323,781.696113 L269.096089,781.696113 L268.890088,781.696113 C265.814791,781.696113 262.858129,784.403551 263.005272,787.580929 C263.152416,790.773021 265.594076,793.465744 268.890088,793.465744 L272.347038,793.465744 C273.244612,803.205717 276.377847,812.768197 281.439579,821.110307 C288.08954,832.055935 298.064022,841.147557 309.760082,846.430004 C312.967808,847.885804 316.2629,849.151237 319.661912,850.092955 C323.074719,851.034673 326.546383,851.623246 330.06311,852.035248 C330.386825,852.079391 330.725255,852.108819 331.048971,852.138248 L331.048971,855.389197 L331.048971,855.609912 C331.048971,858.685209 333.755489,861.641871 336.933786,861.494728 C340.125878,861.347584 342.818602,858.905924 342.818602,855.609912 L342.818602,852.167677 C345.333834,851.932247 347.849986,851.564389 350.321995,851.064101 C363.048058,848.503807 375.008976,841.780274 383.953454,832.379651 C392.884138,822.992823 399.122098,810.870048 401.079105,798.02627 C401.314534,796.511612 401.50582,794.996036 401.652044,793.465744 L404.889199,793.465744 L405.109914,793.465744 C408.184291,793.465744 411.141873,790.759226 410.994729,787.580929 L410.994729,787.580929 Z M332,840.5 C331.631611,840.455766 331.263222,840.426276 330.894833,840.382042 C326.312994,839.70378 321.818647,838.494706 317.531519,836.769563 C313.170713,834.882228 309.074226,832.49449 305.288108,829.619253 C305.420728,829.722466 305.538612,829.810935 305.656497,829.914149 C305.376521,829.707721 305.111281,829.486549 304.831305,829.280122 C304.978661,829.39808 305.126016,829.501294 305.273372,829.619253 C301.811436,826.84815 298.672761,823.707506 295.902475,820.243397 C293.059432,816.468726 290.672271,812.385336 288.772304,808.051283 C288.831246,808.213476 288.904924,808.375669 288.963867,808.537862 C288.831246,808.228221 288.698626,807.91858 288.580742,807.623684 C288.639684,807.756387 288.698626,807.903835 288.757569,808.036538 C287.018772,803.68682 285.810456,799.161085 285.117885,794.532137 C285.117885,794.576371 285.13262,794.620605 285.13262,794.650095 C285.117885,794.532137 285.103149,794.414178 285.088413,794.29622 C285.103149,794.369944 285.103149,794.443668 285.117885,794.517392 C285.073678,794.178261 285.044207,793.839131 285,793.5 L302.355731,793.5 C303.107244,797.996245 304.728156,802.375453 307.071111,806.222927 C310.709874,812.208398 316.175847,817.30918 322.57016,820.199163 C324.412106,821.024872 326.283522,821.791602 328.21296,822.336239 C329.465483,822.690114 330.718006,822.940776 332,823.132458 L332,840.5 Z M332,811.5 C330.825903,811.198697 329.666858,810.822069 328.522866,810.385181 C326.506768,809.482215 324.595097,808.367396 322.803847,807.05673 C321.208279,805.746064 319.749125,804.284747 318.439555,802.688785 C317.129985,800.896035 316.016098,798.982764 315.097894,796.949914 C314.66137,795.820029 314.30011,794.67508 314,793.5 L332,793.5 L332,811.5 Z M332,781.5 L314,781.5 C314.300548,780.290857 314.690321,779.081714 315.141143,777.918286 C316.042786,775.917975 317.154813,774.022158 318.462197,772.245763 C319.76958,770.66436 321.226298,769.216374 322.819202,767.917664 C324.607462,766.618955 326.515941,765.514306 328.543699,764.604649 C329.670754,764.171746 330.827863,763.813482 332,763.5 L332,781.5 Z M332,751.861163 C323.677937,753.285127 315.841995,757.530395 310.45139,764.080997 C309.19926,765.608706 307.992243,767.194255 306.975808,768.883549 C305.944641,770.602221 305.134439,772.408112 304.36843,774.25899 C303.410919,776.594622 302.777488,779.017473 302.379753,781.5 L285,781.5 C285.044193,781.088694 285.088386,780.662698 285.132579,780.251392 C285.810202,775.683873 287.018139,771.204491 288.74166,766.929844 C290.6263,762.582668 293.012713,758.499902 295.884327,754.724699 C295.78121,754.856904 295.693745,754.97442 295.590629,755.091936 C295.796862,754.812836 296.016905,754.548425 296.223139,754.269324 C296.105291,754.416219 296.002174,754.563114 295.884327,754.710009 C298.653744,751.258893 301.791436,748.130028 305.252287,745.369318 C309.022488,742.534243 313.10296,740.155461 317.432937,738.260514 C317.270897,738.319272 317.108856,738.39272 316.946816,738.451478 C317.256166,738.319272 317.565515,738.187067 317.860134,738.069551 C317.727556,738.128309 317.594977,738.187067 317.447668,738.245825 C321.792376,736.512463 326.314776,735.307923 330.939372,734.617516 C330.895179,734.617516 330.850986,734.632206 330.821524,734.632206 C330.939372,734.617516 331.05722,734.602827 331.175067,734.588137 C331.101412,734.602827 331.027758,734.602827 330.954103,734.617516 C331.292915,734.573448 331.631726,734.544069 331.985269,734.5 L331.985269,751.861163 L332,751.861163 Z M343,763.5 C344.208141,763.798306 345.400435,764.186105 346.56383,764.633565 C348.562484,765.527552 350.45673,766.631286 352.230721,767.928919 C353.811746,769.226552 355.258532,770.673339 356.556166,772.253431 C357.853799,774.028355 358.956601,775.922601 359.866435,777.93617 C360.313895,779.098633 360.686778,780.291859 361,781.5 L343,781.5 L343,763.5 Z M343,793.5 L361,793.5 C360.70095,794.672137 360.34209,795.829246 359.908468,796.956301 C359.011318,798.969032 357.905768,800.877511 356.604901,802.665771 C355.304034,804.257735 353.853642,805.715393 352.268678,807.022776 C350.490265,808.330159 348.591298,809.442186 346.572712,810.357918 C345.407352,810.80874 344.226105,811.184425 343.014952,811.5 L343.014952,793.5 L343,793.5 Z M389.867751,794.576371 C389.191809,799.161085 387.987787,803.65733 386.268544,807.962814 C384.387662,812.326356 382.00809,816.424492 379.142684,820.213908 C379.245545,820.095949 379.333711,819.963246 379.436572,819.845287 C379.23085,820.110694 379.010435,820.390845 378.804713,820.656252 C378.922268,820.508804 379.025129,820.361356 379.142684,820.213908 C376.381058,823.678016 373.251153,826.833405 369.79889,829.589763 C366.037127,832.435511 361.9677,834.823249 357.648468,836.725329 C357.809188,836.66635 357.970826,836.592626 358.132464,836.533646 C357.823882,836.66635 357.516219,836.799053 357.222331,836.917011 C357.35458,836.858032 357.501524,836.799053 357.633774,836.740074 C353.298929,838.479961 348.78867,839.689036 344.175551,840.382042 C344.219634,840.382042 344.263717,840.367297 344.293106,840.367297 C344.175551,840.382042 344.057996,840.396786 343.940441,840.411531 C344.013913,840.396786 344.087385,840.396786 344.160857,840.382042 C343.778803,840.426276 343.396748,840.47051 343,840.5 L343,823.176693 C343.60247,823.073479 344.20494,822.970265 344.80741,822.837562 C358.764323,819.977991 370.42983,807.94807 372.633989,793.780151 C372.648683,793.691683 372.663377,793.588469 372.678072,793.5 L390,793.5 C389.941222,793.86862 389.911834,794.222496 389.867751,794.576371 L389.867751,794.576371 Z M372.698175,781.5 C371.846167,776.214347 369.849273,771.104913 366.735037,766.772862 C365.589233,765.173124 364.35529,763.616522 362.990057,762.20677 C361.609216,760.782333 360.081478,759.5488 358.509669,758.360239 C355.675457,756.201556 352.517151,754.615585 349.168796,753.396737 C347.156294,752.663409 345.100641,752.120067 343,751.782314 L343,734.5 C343.411314,734.544055 343.822629,734.58811 344.248633,734.632164 C348.816241,735.307671 353.29571,736.511834 357.570441,738.229969 C361.917702,740.109639 366.000547,742.487678 369.775824,745.351237 C369.658306,745.248443 369.526098,745.160333 369.408579,745.057539 C369.672996,745.263128 369.952102,745.483401 370.216518,745.68899 C370.06962,745.571511 369.922722,745.468716 369.775824,745.351237 C373.227008,748.111084 376.370624,751.238972 379.116698,754.68901 C381.951828,758.448349 384.330657,762.515154 386.225641,766.831602 C386.166882,766.670068 386.093433,766.508534 386.034673,766.347 C386.166882,766.655383 386.29909,766.963766 386.416608,767.257465 C386.357849,767.1253 386.29909,766.993136 386.240331,766.846287 C387.973726,771.178338 389.177371,775.68569 389.867792,780.281152 C389.911861,780.677645 389.955931,781.074137 390,781.47063 L372.698175,781.47063 L372.698175,781.5 Z" id="Fill-1"></path>
        </g>
    </g>
</svg>