<?xml version="1.0" encoding="UTF-8"?>
<svg width="153px" height="141px" viewBox="0 0 153 141" version="1.1" xmlns="http://www.w3.org/2000/svg" xmlns:xlink="http://www.w3.org/1999/xlink">
    <!-- Generator: sketchtool 57.1 (101010) - https://sketch.com -->
    <title>82575727-9A45-4FF4-B396-BA775FEBA00E</title>
    <desc>Created with sketchtool.</desc>
    <defs>
        <polygon id="path-1" points="0 0.3295 48.2249 0.3295 48.2249 46.7075 0 46.7075"></polygon>
    </defs>
    <g id="Layouts" stroke="none" stroke-width="1" fill="none" fill-rule="evenodd">
        <g id="merkle" transform="translate(-263.000000, -982.000000)">
            <g id="Group-22" transform="translate(263.000000, 982.000000)">
                <g id="Group-3" transform="translate(0.000000, 74.819000)">
                    <mask id="mask-2" fill="white">
                        <use xlink:href="#path-1"></use>
                    </mask>
                    <g id="Clip-2"></g>
                    <path d="M45.8109,14.9825 C46.5839,14.7195 47.3909,14.4905 48.2249,14.2965 C47.6679,13.8655 47.1289,13.4085 46.6129,12.9285 C43.0249,9.5905 40.5489,5.1625 39.5909,0.3895 C39.0649,0.3495 38.5079,0.3295 37.9289,0.3295 L22.4239,0.3295 C10.0599,0.3295 -0.0001,10.4555 -0.0001,22.9025 L-0.0001,41.5615 L0.7149,41.7685 C9.3589,44.5185 17.9599,46.1755 26.3199,46.7075 L26.3199,42.0035 C26.3199,29.7425 34.0869,18.9035 45.6469,15.0325 L45.8109,14.9825 Z" id="Fill-1" fill="#1E8CC3" mask="url(#mask-2)"></path>
                </g>
                <path d="M62.2652,0.0001 C71.8202,0.0001 79.5652,7.7971 79.5652,17.4151 C79.5652,27.0331 71.8202,34.8301 62.2652,34.8301 C52.7102,34.8301 44.9652,27.0331 44.9652,17.4151 C44.9652,7.7971 52.7102,0.0001 62.2652,0.0001" id="Fill-4" fill="#1E8CC3"></path>
                <path d="M27.4375,68.7215 L27.4485,68.7235 C28.3215,68.8705 29.2265,68.9445 30.1375,68.9445 L31.1655,68.9255 C34.1425,68.7555 37.0625,67.7855 39.5905,66.1185 C40.6035,60.9455 43.3595,56.2565 47.3985,52.8365 C47.4365,52.3685 47.4455,51.9595 47.4455,51.5415 C47.4455,48.2775 46.5375,45.0975 44.8225,42.3435 C44.1515,41.2375 43.3715,40.2355 42.4965,39.3545 C39.1965,35.9765 34.8095,34.1185 30.1375,34.1185 C20.5945,34.1185 12.8305,41.9345 12.8305,51.5415 C12.8305,60.0355 19.1105,67.4215 27.4375,68.7215" id="Fill-6" fill="#1E8CC3"></path>
                <path d="M69.4953,48.538 C69.8263,45.927 70.5903,43.432 71.7733,41.092 C71.2073,41.048 70.6353,41.025 70.0633,41.025 L54.5393,41.025 C53.3243,41.025 52.1083,41.126 50.9093,41.324 C52.1203,43.803 52.8813,46.504 53.1463,49.262 C58.2133,47.032 64.1593,46.753 69.4953,48.538" id="Fill-8" fill="#1E8CC3"></path>
                <path d="M45.0568,68.9435 C45.0018,69.4965 44.9648,70.0695 44.9648,70.6425 L44.9648,70.9735 C44.9828,72.3055 45.1608,73.6295 45.4948,74.8985 C47.0018,80.8925 51.5788,85.6635 57.4428,87.3605 C57.9938,87.5265 58.5528,87.6735 59.1108,87.7625 L59.7798,87.8825 C60.5388,88.0045 61.3438,88.0505 62.3408,88.0635 C62.5248,88.0635 62.7078,88.0635 62.8918,88.0485 C63.2118,88.0445 63.4378,88.0295 63.6618,87.9955 C64.5018,87.9405 65.2948,87.8165 66.1548,87.6085 L66.3478,87.5605 L66.7618,87.4575 L66.7668,87.4615 C72.9358,85.7945 77.7638,80.7305 79.1368,74.4315 C79.4178,73.1895 79.5598,71.9155 79.5598,70.6425 L79.5598,70.3105 C79.5248,68.4285 79.1978,66.5885 78.5888,64.8625 C77.7448,62.4385 76.3358,60.1905 74.5138,58.3575 L74.3808,58.2235 C73.0638,56.9215 71.5918,55.8605 70.0018,55.0695 C67.5778,53.8405 64.9798,53.2195 62.2718,53.2195 C58.7588,53.2195 55.3778,54.2795 52.4918,56.2855 C48.2498,59.2015 45.5418,63.8135 45.0568,68.9395 L45.0568,68.9435 Z" id="Fill-10" fill="#1E8CC3"></path>
                <path d="M115.5316,51.5417 C115.5316,51.7057 115.5316,51.8657 115.5296,52.0257 C117.7286,53.0247 120.0996,53.5317 122.5866,53.5317 C132.1306,53.5317 139.8946,45.7247 139.8946,36.1287 C139.8946,26.5217 132.1306,18.7057 122.5866,18.7057 C114.3856,18.7057 107.3696,24.4557 105.6746,32.4667 C111.8586,36.8547 115.5316,43.9367 115.5316,51.5417" id="Fill-12" fill="#1E8CC3"></path>
                <path d="M78.1127,41.7705 C76.1987,44.5945 75.1677,47.8875 75.1227,51.3085 C80.5867,54.9965 84.2067,60.7845 85.1437,67.3245 C86.8887,68.1545 88.7487,68.6685 90.6797,68.8515 C91.5917,68.9415 92.5417,68.9585 93.4817,68.9065 C94.0037,68.8885 94.4897,68.8335 94.9557,68.7605 C95.6797,68.6545 96.4127,68.4925 97.1407,68.2805 C101.8847,66.9455 105.8357,63.6055 107.9917,59.1165 C108.6097,57.8535 109.0727,56.4875 109.3687,55.0495 L109.4697,54.5295 L109.4787,54.5315 C109.6427,53.4165 109.7167,52.4865 109.7167,51.5415 C109.7167,51.0735 109.7007,50.5885 109.6457,50.1375 C109.2867,45.5435 107.1887,41.3845 103.7337,38.3685 C102.6207,37.3945 101.3727,36.5615 100.0247,35.8915 C97.6317,34.7165 95.0757,34.1185 92.4287,34.1185 C88.0557,34.1185 83.8777,35.7725 80.6657,38.7745 C79.7167,39.6555 78.8597,40.6615 78.1147,41.7685 L78.1127,41.7705 Z" id="Fill-14" fill="#1E8CC3"></path>
                <path d="M86.8806,101.942 L86.8766,101.936 C82.5996,97.051 76.4706,94.248 70.0636,94.248 L54.5386,94.248 C42.1856,94.248 32.1346,104.375 32.1346,116.822 L32.1346,135.488 L32.8616,135.711 C43.5896,139.101 54.1926,140.819 64.3846,140.819 C80.8126,140.819 90.6946,136.216 91.7676,135.692 L92.5646,135.258 L92.5646,116.822 C92.5466,113.031 91.5706,109.279 89.7426,105.983 C88.9666,104.566 88.0046,103.209 86.8806,101.942" id="Fill-16" fill="#1E8CC3"></path>
                <path d="M130.3778,59.7363 L114.8728,59.7363 C114.5998,59.7363 114.3268,59.7423 114.0538,59.7543 C112.5138,63.8233 109.8718,67.3833 106.4658,70.0093 C119.1128,72.8943 128.4438,84.3963 128.5358,97.6953 L128.5358,106.2113 C143.4518,105.5623 151.9798,101.2123 152.0658,101.1663 L152.8788,100.7373 L152.8788,82.3103 C152.8058,69.8653 142.7108,59.7363 130.3778,59.7363" id="Fill-18" fill="#1E8CC3"></path>
                <path d="M100.2206,75.1481 L84.9476,75.1481 C83.9236,80.3211 81.1736,85.0151 77.1416,88.4391 C76.8786,88.6681 76.6086,88.8891 76.3306,89.1061 C77.5916,89.3941 78.8216,89.7731 80.0096,90.2381 C82.9496,91.3371 85.7196,92.9761 88.2286,95.1021 C89.7796,96.4111 91.1326,97.8231 92.2506,99.2951 C92.8556,100.0421 93.4166,100.8271 93.9456,101.6671 C94.9346,103.2321 95.7776,104.8971 96.4506,106.6121 C97.7116,109.8541 98.3596,113.2801 98.3786,116.7971 L98.3786,121.6251 C113.2946,120.9751 121.8226,116.6261 121.9086,116.5801 L122.7216,116.1511 L122.7216,97.7221 C122.6486,85.2761 112.5546,75.1481 100.2206,75.1481" id="Fill-20" fill="#1E8CC3"></path>
            </g>
        </g>
    </g>
</svg>