<?xml version="1.0" encoding="UTF-8"?>
<svg width="104px" height="122px" viewBox="0 0 104 122" version="1.1" xmlns="http://www.w3.org/2000/svg" xmlns:xlink="http://www.w3.org/1999/xlink">
    <!-- Generator: sketchtool 57.1 (101010) - https://sketch.com -->
    <title>A9DD1DFC-209C-4AC0-A57D-8B843B40D437</title>
    <desc>Created with sketchtool.</desc>
    <g id="Layouts" stroke="none" stroke-width="1" fill="none" fill-rule="evenodd">
        <g id="about" transform="translate(-471.000000, -1803.000000)" fill="#1E8CC3">
            <g id="blockchain" transform="translate(262.000000, 1158.000000)">
                <g id="staking" transform="translate(98.000000, 585.000000)">
                    <path d="M111.022837,83.4825869 C110.880792,82.6008142 111.413291,81.7477726 112.288208,81.4570406 C128.814187,74.4288534 145.293505,67.3671465 161.726847,60.2739721 C162.478932,59.908676 163.366201,59.908676 164.118286,60.2739721 C180.653187,67.408191 197.187401,74.4815272 213.721615,81.4932966 C214.551929,81.706728 215.091975,82.4776806 214.986985,83.2992548 C214.986985,94.1596306 214.986985,105.031636 214.923854,115.892011 C214.901209,119.451254 214.601336,123.00434 214.025606,126.519802 C212.175586,137.715374 207.533379,148.309645 200.498361,157.39211 C191.514508,169.069271 180.024619,177.415671 165.472863,181.637782 C163.900072,182.120739 162.21131,182.120739 160.638519,181.637782 C147.184698,177.774126 135.358566,169.875111 126.878391,159.087932 C116.592799,146.606298 111.031072,131.11405 111.111358,115.17168 L111.111358,101.090679 C111.111358,95.2213151 111.111358,89.351951 111.022837,83.4825869 L111.022837,83.4825869 Z M200.220525,121.162882 L201.896642,121.162882 C201.896642,120.659268 201.970688,120.229958 201.970688,119.813032 L201.970688,90.4451965 C202.11272,89.7613276 201.727011,89.0781467 201.064642,88.8373478 C188.519344,83.3884125 175.982124,77.9030133 163.453655,72.3804623 C163.143338,72.2456149 162.808114,72.1596153 162.373939,72 L162.373939,73.1661547 L162.373939,120.229958 C162.373939,120.573268 162.373939,120.917267 162.460774,121.272961 C162.113434,121.272961 161.765421,121.175265 161.405292,121.175265 L123.906046,121.175265 L123,121.175265 C124.762952,140.295387 139.199098,164.127599 162.460774,171 L162.460774,121.162882 L200.220525,121.162882 Z"></path>
                </g>
            </g>
        </g>
    </g>
</svg>