<?xml version="1.0" encoding="UTF-8"?>
<svg width="150px" height="122px" viewBox="0 0 150 122" version="1.1" xmlns="http://www.w3.org/2000/svg" xmlns:xlink="http://www.w3.org/1999/xlink">
    <!-- Generator: sketchtool 57.1 (101010) - https://sketch.com -->
    <title>D64EFC27-68A1-4CA4-9285-70D86CB46659</title>
    <desc>Created with sketchtool.</desc>
    <g id="Layouts" stroke="none" stroke-width="1" fill="none" fill-rule="evenodd">
        <g id="about" transform="translate(-448.000000, -1408.000000)" fill="#1E8CC3">
            <g id="blockchain" transform="translate(262.000000, 1158.000000)">
                <g id="algorithm" transform="translate(98.000000, 190.000000)">
                    <g id="icon" transform="translate(88.000000, 60.000000)">
                        <path d="M149.695593,101.02548 L149.695593,95.1516076 C149.695593,94.2704102 148.818789,93.3892127 147.649716,93.3892127 L142.389665,93.0954803 C142.097397,92.2142828 141.805129,91.4807287 141.366727,90.7463975 L145.020077,86.7810089 C145.750747,85.8998115 145.750747,84.7256586 145.020077,83.8444611 L140.928325,79.7322064 C140.489923,79.2923847 140.052294,79.1455185 139.467758,79.1455185 C139.029356,79.1455185 138.44482,79.2923847 138.006418,79.7322064 L134.061572,83.4038624 C133.330902,82.9632637 132.454098,82.6695312 131.723428,82.3757987 C131.723428,82.3757987 131.577294,79.1455185 131.43116,76.9425248 C131.43116,75.7675949 130.408222,74.8863975 129.385284,74.8863975 L123.540696,74.8863975 C122.371624,74.8863975 121.495593,75.7675949 121.495593,76.9425248 L121.057191,82.2289325 C120.180387,82.522665 119.449716,82.8163975 118.719046,83.2569962 L114.774201,79.5861172 C114.335799,79.2923847 113.897397,78.9986522 113.312861,78.9986522 C112.728325,78.9986522 112.289923,79.1455185 111.851521,79.5861172 L107.760541,83.6975949 C107.029871,84.4319261 106.883737,85.7529452 107.760541,86.6341427 L111.413119,90.5995312 C110.974716,91.3338624 110.682448,92.2142828 110.39018,92.948614 L108.491211,92.948614 C107.468273,92.948614 106.006933,93.0954803 104.983995,93.0954803 C103.814923,93.0954803 102.938892,94.1235439 102.938892,95.1516076 L102.938892,101.02548 C102.938892,102.20041 103.814923,103.081608 104.983995,103.081608 L110.39018,103.228474 C110.682448,104.108894 110.974716,104.843225 111.413119,105.577557 L107.760541,109.542945 C107.029871,110.424143 107.029871,111.598296 107.760541,112.479493 L111.851521,116.590971 C112.289923,117.031569 112.728325,117.178436 113.312861,117.178436 C113.751263,117.178436 114.335799,117.031569 114.774201,116.590971 L118.719046,112.920092 C119.449716,113.36069 120.326521,113.654423 121.057191,113.948155 C121.057191,113.948155 121.057191,114.829353 121.203325,115.857417 C121.203325,116.88548 121.349459,118.353366 121.349459,119.381429 C121.349459,120.556359 122.371624,121.437557 123.394562,121.437557 L129.239149,121.437557 C130.408222,121.437557 131.285026,120.556359 131.285026,119.381429 L131.577294,113.948155 C132.454098,113.654423 133.184768,113.36069 133.914665,112.920092 L137.860284,116.590971 C138.298686,116.88548 138.737088,117.178436 139.321624,117.178436 C139.90616,117.178436 140.344562,117.031569 140.782191,116.590971 L144.873943,112.479493 C145.604613,111.745162 145.750747,110.424143 144.873943,109.542945 L141.220593,105.577557 C141.658995,104.843225 141.951263,103.962805 142.243531,103.228474 C142.243531,103.228474 145.458479,103.081608 147.649716,103.081608 C148.818789,103.081608 149.695593,102.053544 149.695593,101.02548 M132.600232,98.3818879 C132.600232,101.906678 129.823686,104.696359 126.317242,104.696359 C122.810026,104.696359 120.034253,101.906678 120.034253,98.3818879 C120.034253,94.8578752 122.810026,92.0674166 126.317242,92.0674166 C129.823686,92.0674166 132.600232,94.8578752 132.600232,98.3818879" id="Fill-1"></path>
                        <path d="M105.349485,59.4735236 L105.349485,46.1102497 C105.349485,43.6143006 103.449742,41.5581732 100.820103,41.411307 L88.6925258,40.9707083 C88.1079897,39.0614471 87.3773196,37.2990522 86.5005155,35.5374344 L94.6832474,26.5793707 C96.4360825,24.6708866 96.2907216,21.880428 94.5371134,20.1180331 L85.1853093,10.7201478 C84.3085052,9.83895032 82.9940722,9.39835159 81.825,9.39835159 C80.6559278,9.39835159 79.6329897,9.83895032 78.6100515,10.5732815 L69.6974227,18.7962369 C67.9438144,17.9158166 66.1902062,17.1814854 64.4373711,16.5940204 C64.4373711,16.5940204 64.1451031,9.39835159 63.9989691,4.40567643 C63.8528351,1.90895032 61.6608247,0.000466242038 59.1773196,0.000466242038 L45.8806701,0.000466242038 C43.3963918,0.000466242038 41.3505155,1.90895032 41.2043814,4.55254268 L40.7659794,16.7408866 C38.8670103,17.3283516 37.1134021,18.0626828 35.5059278,18.9431032 L26.593299,10.7201478 C25.7164948,9.83895032 24.5474227,9.54521783 23.3783505,9.54521783 C22.2100515,9.54521783 21.0409794,9.98581656 20.0180412,10.867014 L10.6662371,20.2648994 C8.91340206,22.0272943 8.76726804,24.963842 10.5201031,26.7262369 L18.7028351,35.6843006 C17.8260309,37.4459185 17.0953608,39.2083134 16.5108247,41.1175745 C16.5108247,41.1175745 9.35103093,41.411307 4.38324742,41.5581732 C1.89974227,41.5581732 0,43.7603898 0,46.2571159 L0,59.6203898 C0,62.1163389 1.89974227,64.1724662 4.52938144,64.3193325 L16.6569588,64.7599312 C17.2414948,66.6691924 17.9721649,68.4315873 18.8489691,70.1932051 L10.6662371,79.1512688 C8.91340206,81.0597529 9.05953608,83.8502115 10.8123711,85.6126064 L20.1641753,95.0104917 C21.0409794,95.8916892 22.3554124,96.3322879 23.5244845,96.3322879 C24.6935567,96.3322879 25.7164948,95.8916892 26.739433,95.157358 L35.6520619,86.9344025 C37.4056701,87.8148229 39.1592784,88.5491541 40.9121134,89.1366191 C40.9121134,89.1366191 41.2043814,96.3322879 41.3505155,101.324963 C41.4966495,103.821689 43.5425258,105.877039 46.0268041,105.877039 L59.3234536,105.877039 C61.8069588,105.877039 63.8528351,103.821689 63.9989691,101.324963 L64.4373711,89.1366191 C66.3363402,88.5491541 68.0899485,87.8148229 69.6974227,86.9344025 L78.6100515,95.157358 C79.4868557,96.0385554 80.6559278,96.3322879 81.825,96.3322879 C82.9940722,96.3322879 84.1623711,95.8916892 85.1853093,95.0104917 L94.5371134,85.4657401 C96.2907216,83.7033452 96.4360825,80.7667975 94.6832474,79.0044025 L86.5005155,70.0463389 C87.3773196,68.284721 88.1079897,66.5223261 88.6925258,64.613065 C88.6925258,64.613065 95.8523196,64.3193325 100.820103,64.1724662 C103.303608,64.0256 105.349485,61.9702497 105.349485,59.4735236 M67.5054124,52.8653197 C67.5054124,61.0890522 60.7840206,67.8441223 52.6020619,67.8441223 C44.4193299,67.8441223 37.6979381,61.0890522 37.6979381,52.8653197 C37.6979381,44.6415873 44.4193299,37.8865172 52.6020619,37.8865172 C60.7840206,37.8865172 67.5054124,44.6415873 67.5054124,52.8653197" id="Fill-4"></path>
                    </g>
                </g>
            </g>
        </g>
    </g>
</svg>