<?xml version="1.0" encoding="UTF-8"?>
<svg width="108px" height="130px" viewBox="0 0 108 130" version="1.1" xmlns="http://www.w3.org/2000/svg" xmlns:xlink="http://www.w3.org/1999/xlink">
    <!-- Generator: sketchtool 57.1 (101010) - https://sketch.com -->
    <title>B20BEDFB-6AB0-4CE2-B38D-C80B26605EA5</title>
    <desc>Created with sketchtool.</desc>
    <defs>
        <polygon id="path-1" points="0.953947368 0 107.953947 0 107.953947 130 0.953947368 130"></polygon>
    </defs>
    <g id="Layouts" stroke="none" stroke-width="1" fill="none" fill-rule="evenodd">
        <g id="merkle" transform="translate(-286.000000, -463.000000)">
            <g id="Group-3" transform="translate(286.000000, 463.000000)">
                <mask id="mask-2" fill="white">
                    <use xlink:href="#path-1"></use>
                </mask>
                <g id="Clip-2"></g>
                <path d="M32.7495252,83.7757078 C38.8748725,88.1171117 46.3651304,90.6695697 54.4540935,90.6695697 C62.5430566,90.6695697 70.0333144,88.1171117 76.1586618,83.7757078 L76.1586618,126.060743 C76.1586618,129.202098 72.645456,131.074927 70.0230067,129.333059 L54.4540935,118.989698 L38.8851802,129.333059 C36.261872,131.074927 32.7495252,129.202098 32.7495252,126.060743 L32.7495252,83.7757078 Z M82.0778552,78.5680773 C88.2040615,71.9181627 91.9431776,63.0504685 91.9431776,53.312268 C91.9431776,32.6794719 75.1588154,15.9541105 54.4540935,15.9541105 C33.7493716,15.9541105 16.9641504,32.6794719 16.9641504,53.312268 C16.9641504,63.0504685 20.7041255,71.9181627 26.8303318,78.5680773 L26.8303318,94.4015336 L17.7312146,93.366684 C15.9058938,93.1595429 14.4653935,91.7241063 14.2575216,89.9060578 L12.8110086,77.2704495 L2.55313478,69.703807 C1.07655757,68.6141762 0.549147216,66.6540392 1.28099351,64.9755114 L6.36869962,53.312268 L1.28099351,41.6481688 C0.549147216,39.9696409 1.07655757,38.0095039 2.55313478,36.9198731 L12.8110086,29.3540866 L14.2575216,16.7184783 C14.4653935,14.8995739 15.9058938,13.4641373 17.7312146,13.2569962 L30.4113966,11.8155679 L38.0047314,1.59289687 C39.0973469,0.121510164 41.0643986,-0.403190273 42.7488476,0.326083418 L54.4540935,5.3959051 L66.1584804,0.326083418 C67.8437884,-0.403190273 69.81084,0.121510164 70.9034556,1.59289687 L78.4967904,11.8155679 L91.1769724,13.2569962 C93.0022932,13.4641373 94.4419345,14.8995739 94.6506653,16.7184783 L96.0971784,29.3540866 L106.355052,36.9198731 C107.831629,38.0095039 108.35904,39.9696409 107.626334,41.6481688 L102.539487,53.312268 L107.626334,64.9755114 C108.35904,66.6540392 107.831629,68.6141762 106.355052,69.703807 L96.0971784,77.2704495 L94.6506653,89.9060578 C94.4419345,91.7241063 93.0022932,93.1595429 91.1769724,93.366684 L82.0778552,94.4015336 L82.0778552,78.5680773 Z M54.4540935,84.7711835 C37.0186286,84.7711835 22.8842028,70.6864434 22.8842028,53.312268 C22.8842028,35.9372368 37.0186286,21.8524966 54.4540935,21.8524966 C71.8895584,21.8524966 86.0239842,35.9372368 86.0239842,53.312268 C86.0239842,70.6864434 71.8895584,84.7711835 54.4540935,84.7711835 L54.4540935,84.7711835 Z M66.8705702,44.0568262 C66.1000701,43.2890346 64.8511211,43.2890346 64.080621,44.0568262 L52.481029,55.615643 L46.8006305,49.9552124 C46.0301303,49.1874207 44.7811814,49.1874207 44.0106812,49.9552124 L41.219873,52.7362103 C40.4493728,53.504002 40.4493728,54.7485606 41.219873,55.5163523 L49.6902208,63.9569249 C51.2312211,65.4933642 53.729978,65.4933642 55.2709783,63.9569249 L69.6613785,49.6179661 C70.4318786,48.8501744 70.4318786,47.6056158 69.6613785,46.8378241 L66.8705702,44.0568262 Z" id="Fill-1" fill="#1E8CC3" mask="url(#mask-2)"></path>
            </g>
        </g>
    </g>
</svg>