<?xml version="1.0" encoding="UTF-8"?>
<svg width="103px" height="110px" viewBox="0 0 103 110" version="1.1" xmlns="http://www.w3.org/2000/svg" xmlns:xlink="http://www.w3.org/1999/xlink">
    <!-- Generator: sketchtool 57.1 (101010) - https://sketch.com -->
    <title>C9ADF0AC-4281-4C63-9120-CF1EC2BF5395</title>
    <desc>Created with sketchtool.</desc>
    <g id="Layouts" stroke="none" stroke-width="1" fill="none" fill-rule="evenodd">
        <g id="about" transform="translate(-284.000000, -3020.000000)" fill="#1E8CC3">
            <g id="validators" transform="translate(262.000000, 2278.000000)">
                <g id="coins" transform="translate(22.000000, 742.000000)">
                    <g>
                        <path d="M51.5219318,36.5403409 C82.7492045,36.5403409 102.67875,25.7241477 102.67875,18.2701705 C102.67875,10.8161932 82.7492045,1.47792889e-12 51.5219318,1.47792889e-12 C20.2946591,1.47792889e-12 0.365113636,10.8161932 0.365113636,18.2701705 C0.365113636,25.7241477 20.2946591,36.5403409 51.5219318,36.5403409" id="Fill-10"></path>
                        <path d="M51.5219318,109.621023 C82.7492045,109.621023 102.67875,98.8048295 102.67875,91.3508523 L102.67875,75.9528409 C86.9577273,84.3042614 69.3105682,88.3559659 51.5219318,87.6971591 C33.7332955,88.3559659 16.0861364,84.3042614 0.365113636,75.9528409 L0.365113636,91.3508523 C0.365113636,98.8048295 20.2946591,109.621023 51.5219318,109.621023" id="Fill-12"></path>
                        <path d="M51.5219318,73.0806818 C82.7492045,73.0806818 102.67875,62.2644886 102.67875,54.8105114 L102.67875,39.4125 C86.9577273,47.7639205 69.3105682,51.815625 51.5219318,51.1568182 C33.7332955,51.815625 16.0861364,47.7639205 0.365113636,39.4125 L0.365113636,54.8105114 C0.365113636,62.2644886 20.2946591,73.0806818 51.5219318,73.0806818" id="Fill-14"></path>
                    </g>
                </g>
            </g>
        </g>
    </g>
</svg>