<?xml version="1.0" encoding="UTF-8"?>
<svg width="20px" height="16px" viewBox="0 0 20 16" version="1.1" xmlns="http://www.w3.org/2000/svg" xmlns:xlink="http://www.w3.org/1999/xlink">
    <!-- Generator: Sketch 57.1 (83088) - https://sketch.com -->
    <title>Medium</title>
    <desc>Created with Sketch.</desc>
    <g id="Symbols" stroke="none" stroke-width="1" fill="none" fill-rule="evenodd">
        <g id="footer" transform="translate(-263.000000, -154.000000)" fill="#73BEE1">
            <g id="Medium" transform="translate(263.000000, 154.000000)">
                <path d="M0.243588273,0.00326924897 L0.447921616,0.00326924897 C2.25775504,0.00326924897 4.06758846,0.00490285817 5.87742188,0 C6.01175522,-0.000324691268 6.07625522,0.0387185686 6.13175522,0.158788845 C7.57375529,3.2682006 9.01992203,6.37565202 10.4654221,9.48343016 C10.4817554,9.51855276 10.4989221,9.55302191 10.5274221,9.6119952 C10.5550888,9.55204175 10.5755888,9.51152824 10.5927554,9.46970784 C11.8620888,6.36732061 13.1319222,3.26493338 14.3974223,0.160912537 C14.4447556,0.0449262836 14.4972556,-0.000324691268 14.6297556,0 C16.3602557,0.00490285817 18.0907558,0.00326924897 19.8214225,0.00326924897 L19.9842559,0.00326924897 C20.0217559,0.20583679 20,0.355638753 19.8330892,0.503643747 C19.3334225,0.946678562 18.8555892,1.41307399 18.3689225,1.87015784 C18.2625891,1.97013473 18.2167558,2.09216533 18.2169225,2.23592294 C18.2175891,5.939315 18.2174225,9.64287042 18.2165891,13.3462625 C18.2165891,13.4908369 18.2699225,13.6096003 18.3749225,13.7097405 C18.8790892,14.1910018 19.3797559,14.6760204 19.8880892,15.1531976 C20.0197559,15.2768618 19.9357559,15.4150652 19.9724226,15.5555556 L12.1242555,15.5555556 C12.1015888,15.3770021 12.0995888,15.2232794 12.2617555,15.0769081 C12.7429222,14.6426947 13.2034222,14.1867544 13.6775889,13.7448631 C13.8197556,13.6123774 13.8860889,13.4681297 13.8857556,13.2712798 C13.8809223,10.3940039 13.8824223,7.5168914 13.8824223,4.63961552 L13.8824223,4.48572953 C13.8707556,4.48344248 13.8590889,4.48131879 13.8474223,4.47886837 C13.7389223,4.7462902 13.6294223,5.01322194 13.5217556,5.28113385 C12.1694222,8.64865586 10.8167554,12.0160145 9.46808872,15.3850068 C9.42242205,15.4990327 9.36625538,15.5433035 9.24275537,15.5330117 C9.0950887,15.5205963 8.91058869,15.5769558 8.80725535,15.508671 C8.69758868,15.4363021 8.66192201,15.2536646 8.59825534,15.1174216 C6.94942193,11.5938899 5.30125518,8.07019484 3.6527551,4.54666316 C3.6372551,4.51350089 3.61792177,4.48213559 3.57642177,4.45518104 L3.57642177,4.60759678 C3.57642177,6.95019237 3.57658843,9.29278797 3.57592177,11.6355469 C3.57592177,11.7374841 3.57008843,11.8394213 3.56692177,11.9413586 C3.5582551,12.210414 3.64658844,12.4454904 3.82125511,12.6524686 C4.51342181,13.4722137 5.20892185,14.2891817 5.88925521,15.118075 C5.96642188,15.2120075 5.95658855,15.3742249 5.99092188,15.5215765 L0.0102549286,15.5215765 C-0.0109117391,15.3436764 -0.0105784057,15.1930577 0.123754934,15.0373747 C0.802421633,14.2509552 1.46608833,13.4522837 2.1354217,12.6581863 C2.32475504,12.4337284 2.40825504,12.1779052 2.37808838,11.8869594 C2.37158838,11.8242288 2.36858838,11.7610081 2.36858838,11.6979508 C2.36825504,8.8984347 2.36458838,6.09891862 2.37342171,3.29956589 C2.37442171,2.97872505 2.28758837,2.72698587 2.07142169,2.48227121 C1.47758833,1.81036775 0.910588305,1.11575711 0.325254944,0.43666577 C0.209588272,0.302383094 0.265088274,0.163689672 0.243588273,0.00326924897" id="Fill-1"></path>
            </g>
        </g>
    </g>
</svg>