<?xml version="1.0" encoding="UTF-8"?>
<svg width="20px" height="17px" viewBox="0 0 20 17" version="1.1" xmlns="http://www.w3.org/2000/svg" xmlns:xlink="http://www.w3.org/1999/xlink">
    <!-- Generator: Sketch 57.1 (83088) - https://sketch.com -->
    <title>Twitter</title>
    <desc>Created with Sketch.</desc>
    <g id="Symbols" stroke="none" stroke-width="1" fill="none" fill-rule="evenodd">
        <g id="footer" transform="translate(-308.000000, -153.000000)" fill="#73BEE1">
            <g id="Twitter" transform="translate(308.000000, 153.000000)">
                <path d="M20,1.94967772 C19.2641667,2.2803663 18.4733333,2.50397799 17.6433333,2.60429924 C18.4905,2.08985725 19.1411667,1.27495817 19.4475,0.304003802 C18.6545,0.780614208 17.7765,1.12650298 16.8418333,1.31295864 C16.0933333,0.504815203 15.027,0 13.8468333,0 C11.5808333,0 9.7435,1.86168551 9.7435,4.15792756 C9.7435,4.4837183 9.77983333,4.8010645 9.84983333,5.10557497 C6.43966667,4.93212391 3.41616667,3.27665432 1.39233333,0.761022852 C1.03916667,1.37511053 0.836833333,2.08935058 0.836833333,2.85138678 C0.836833333,4.29405371 1.56116667,5.56664741 2.66216667,6.31230118 C1.9895,6.29068313 1.35683333,6.10372079 0.803666667,5.79228578 C0.803333333,5.80951267 0.803333333,5.82707733 0.803333333,5.84464199 C0.803333333,7.85917386 2.21766667,9.53963932 4.09483333,9.92167077 C3.7505,10.0167564 3.388,10.0675926 3.01383333,10.0675926 C2.74933333,10.0675926 2.49233333,10.0414145 2.24166667,9.99294277 C2.76383333,11.6446968 4.27933333,12.8470318 6.07483333,12.8804722 C4.6705,13.9958284 2.90133333,14.6604145 0.978833333,14.6604145 C0.647666667,14.6604145 0.321,14.6408231 0,14.602316 C1.81583333,15.7820196 3.97266667,16.4705882 6.28983333,16.4705882 C13.8371667,16.4705882 17.9645,10.1346423 17.9645,4.63994248 C17.9645,4.45973578 17.9605,4.28037354 17.9525,4.10202464 C18.7543333,3.51580398 19.4498333,2.78349259 20,1.94967772" id="Fill-1"></path>
            </g>
        </g>
    </g>
</svg>