<?xml version="1.0" encoding="UTF-8"?>
<svg width="1436px" height="1024px" viewBox="0 0 1436 1024" version="1.1" xmlns="http://www.w3.org/2000/svg" xmlns:xlink="http://www.w3.org/1999/xlink">
    <!-- Generator: sketchtool 57.1 (101010) - https://sketch.com -->
    <title>32FE1A6F-8088-418C-8B68-5E4C0A8F37FA</title>
    <desc>Created with sketchtool.</desc>
    <defs>
        <rect id="path-1" x="0.895326193" y="0" width="1436" height="1024"></rect>
        <linearGradient x1="81.7361934%" y1="20.4466324%" x2="-10.0536549%" y2="95.8508134%" id="linearGradient-3">
            <stop stop-color="#1E8CC3" offset="0%"></stop>
            <stop stop-color="#73BEE1" offset="100%"></stop>
        </linearGradient>
    </defs>
    <g id="Layouts" stroke="none" stroke-width="1" fill="none" fill-rule="evenodd">
        <g id="home" transform="translate(-2.000000, 0.000000)">
            <g id="unicorn-mask" transform="translate(1.104674, 0.000000)">
                <mask id="mask-2" fill="white">
                    <use xlink:href="#path-1"></use>
                </mask>
                <g id="rectangle"></g>
                <path d="M1699.01531,932.621517 L1480.36266,893.036011 L1712.84386,786.160278 L1699.01531,932.621517 Z M1535.69088,1014.40107 L1465.6987,918.724825 L1665.36567,954.875823 L1535.69088,1014.40107 Z M1269.92874,377.019833 L1703.70572,759.664168 L1442.18595,879.890618 L1269.92874,377.019833 Z M1080.71136,453.722292 L1232.32608,353.323594 L1396.32257,832.078159 L1080.71136,453.722292 Z M771.704065,764.741267 L906.689988,573.645422 L1367.71338,872.643619 L771.704065,764.741267 Z M755.537303,739.276443 L632.349756,51.3155359 L886.79423,553.467687 L755.537303,739.276443 Z M504.9245,1116.51236 L485.6728,485.706149 L730.297741,775.581433 L504.9245,1116.51236 Z M660.342895,1504.34579 L508.172787,1162.18292 L728.160219,829.394949 L660.342895,1504.34579 Z M340.591985,1310.50607 L271.607892,698.906973 L479.586929,1166.55538 C479.596263,1166.57872 479.605597,1166.59738 479.614932,1166.61605 L635.756723,1517.70117 L340.591985,1310.50607 Z M25.9281914,1283.75797 L81.559772,1162.74756 L561.615508,1499.73534 L25.9281914,1283.75797 Z M-94.0017351,1005.43216 L-12.8459001,876.432778 L266.371429,1258.40514 L-94.0017351,1005.43216 Z M-21.3166483,303.453229 L103.149679,294.988287 C79.5855976,356.207461 56.9829345,415.135407 51.0557443,431.253329 L-134.39997,596.086387 C-108.096313,526.504932 -58.6392783,399.026817 -21.3166483,303.453229 L-21.3166483,303.453229 Z M187.950503,152.624192 L343.490241,142.600655 C336.214265,158.578584 328.863616,174.77117 321.62031,190.791097 L222.2582,279.09902 C222.248866,279.108353 222.239531,279.117686 222.22553,279.127019 L96.0603861,391.261842 C120.352532,327.770107 161.329485,221.524345 187.950503,152.624192 L187.950503,152.624192 Z M457.385635,473.368052 L476.217298,1090.3289 L265.69937,616.978089 L457.385635,473.368052 Z M246.723027,316.407298 L446.217315,446.885941 L260.98562,585.661534 L246.723027,316.407298 Z M-14.5027131,826.903064 L236.74948,638.672421 L307.689079,1267.65872 L-14.5027131,826.903064 Z M220.223353,343.444716 L234.117247,605.787939 L4.66497996,777.695336 L220.223353,343.444716 Z M-147.463124,645.014128 L186.905077,347.835847 L-36.1812946,797.247767 L-147.463124,645.014128 Z M576.228132,1.81848763 L462.062048,423.922334 L254.237024,287.993276 L342.160124,209.85355 C342.164791,209.848884 342.169458,209.844217 342.174125,209.839551 L576.228132,1.81848763 Z M447.155398,-16.3433406 L562.50692,-23.3010194 L372.98618,145.134538 C406.215782,72.2352368 437.009168,5.57498088 447.155398,-16.3433406 L447.155398,-16.3433406 Z M599.120154,24.0121297 L724.785921,725.799732 L485.878151,442.700134 L599.120154,24.0121297 Z M661.98104,-153.107694 L977.951616,263.653067 L859.599162,254.2595 C853.648636,253.788189 848.057476,257.1527 845.691267,262.631114 C843.325058,268.109528 844.706513,274.488566 849.130904,278.497048 L1037.3542,448.976511 L908.393472,534.372569 L617.172415,-40.3428993 L661.98104,-153.107694 Z M791.361801,-232.031383 L847.502093,-32.8065806 L682.912889,-177.993878 L791.361801,-232.031383 Z M1031.90771,406.409143 L898.191237,285.300734 L997.296658,293.163704 L1031.90771,406.409143 Z M1364.21773,837.131925 L928.475912,554.531638 L1057.31063,469.21491 L1364.21773,837.131925 Z M1216.79871,330.149997 L1067.90023,428.747445 L1021.20144,275.935166 C1021.01475,275.328528 1020.77206,274.740555 1020.51071,274.171248 C1020.48271,274.105917 1020.46404,274.040587 1020.43603,273.975257 C1020.06267,273.205292 1019.60996,272.491325 1019.11525,271.81469 C1019.05925,271.740027 1019.03124,271.660697 1018.97524,271.5907 L753.563129,-78.4771388 L1216.79871,330.149997 Z M1523.49114,-531.724881 L1076.44565,169.148096 L894.994288,9.08415221 L1523.49114,-531.724881 Z M1742.87185,764.055299 C1742.89533,763.373997 1742.89533,762.688029 1742.82518,762.00206 C1742.78784,761.633411 1742.7505,761.274094 1742.6805,760.914777 C1742.56849,760.275473 1742.38647,759.650169 1742.18112,759.020198 C1742.05977,758.656215 1741.9571,758.296898 1741.80775,757.942248 C1741.75641,757.816254 1741.73308,757.680926 1741.67707,757.554932 C1741.42039,756.999625 1741.08436,756.51898 1740.77166,756.015003 C1740.62231,755.772348 1740.50564,755.515693 1740.33762,755.282371 C1739.73557,754.433076 1739.04951,753.663112 1738.28878,752.991143 C1738.27011,752.967811 1738.25611,752.944478 1738.23277,752.921146 L1097.61552,187.823234 L1597.92638,-596.555888 C1601.64604,-602.388952 1600.52594,-610.065265 1595.29881,-614.596389 C1590.07168,-619.122847 1582.31033,-619.136846 1577.0692,-614.624388 L881.249741,-15.8860284 L813.637769,-255.806952 C812.513003,-259.806101 809.661417,-263.091283 805.862415,-264.775872 C802.063413,-266.455794 797.709028,-266.357799 793.994034,-264.505218 L652.147504,-193.831813 C652.13817,-193.827147 652.133503,-193.822481 652.124169,-193.817814 L651.932819,-193.724485 C651.900149,-193.705819 651.876814,-193.682487 651.844144,-193.668488 C651.648127,-193.565826 651.475445,-193.421166 651.284095,-193.313837 C651.144083,-193.234508 651.013404,-193.141179 650.873392,-193.057183 C650.490691,-192.819194 650.09399,-192.632536 649.725291,-192.352548 C649.697288,-192.329216 649.673953,-192.301217 649.64595,-192.282552 C649.510605,-192.175223 649.389261,-192.053896 649.253916,-191.941901 C649.00656,-191.736577 648.791875,-191.498588 648.558521,-191.274598 C648.497849,-191.213934 648.43251,-191.157937 648.371838,-191.097273 C648.124482,-190.849951 647.839791,-190.630628 647.611104,-190.369307 C647.433755,-190.159316 647.293742,-189.921327 647.130395,-189.702004 C646.920376,-189.43135 646.733693,-189.160696 646.54701,-188.876042 C646.383662,-188.62872 646.182978,-188.400064 646.033631,-188.138743 C645.865616,-187.844757 645.758273,-187.518105 645.613594,-187.214786 C645.57159,-187.126123 645.534254,-187.042127 645.496917,-186.953464 C645.408243,-186.757473 645.26823,-186.594148 645.18889,-186.388824 L592.203543,-53.0356467 L437.153848,-43.6840784 C432.034062,-43.3714262 427.497661,-40.277569 425.341471,-35.6251171 C424.926101,-34.7291585 393.367313,33.363698 356.623401,113.808651 L177.258225,125.362784 C171.830412,125.712768 167.102661,129.184608 165.142488,134.25704 C163.074972,139.60946 139.515558,200.576645 114.205989,266.280279 L-32.0369285,276.229153 C-37.4227376,276.597802 -42.1131519,280.041643 -44.0826592,285.067411 C-74.2739926,362.339177 -170.607168,609.385773 -179.315937,638.257106 C-179.325272,638.289772 -179.329939,638.322437 -179.34394,638.355102 C-179.437282,638.667754 -179.53529,638.989739 -179.605296,639.246394 C-179.651967,639.414386 -179.703305,639.573046 -179.745309,639.736371 C-179.829316,640.072356 -179.894655,640.347677 -179.931992,640.557667 C-179.941326,640.608998 -179.941326,640.655662 -179.945993,640.706993 C-180.044002,641.2903 -180.058003,641.882939 -180.081338,642.475578 C-180.104674,642.582907 -180.104674,642.690235 -180.104674,642.797563 C-180.104674,642.816229 -180.104674,642.834895 -180.104674,642.853561 C-180.104674,643.558195 -180.048669,644.253496 -179.95066,644.953464 C-179.927325,645.126123 -179.917991,645.298781 -179.885321,645.47144 C-179.880654,645.485439 -179.875987,645.504105 -179.87132,645.522771 C-179.763977,646.138743 -179.591295,646.740715 -179.390611,647.347353 C-179.315937,647.585342 -179.245931,647.823331 -179.157257,648.06132 C-179.147923,648.084653 -179.133921,648.107985 -179.124587,648.131317 C-178.92857,648.616628 -178.70455,649.08794 -178.452528,649.554585 C-178.293847,649.857904 -178.130499,650.156557 -177.943816,650.45521 C-177.911147,650.506541 -177.869143,650.553205 -177.831806,650.609203 C-177.696461,650.814527 -177.612454,651.038516 -177.463107,651.239174 L-30.5574645,852.199896 L-124.669111,1001.80166 C-128.626794,1008.09203 -126.960646,1016.37498 -120.874775,1020.64012 L58.3457215,1146.45231 L-5.52325328,1285.40056 C-7.11472719,1288.86774 -7.22207,1292.82955 -5.81261217,1296.37606 C-4.40315435,1299.91789 -1.602907,1302.73176 1.9347388,1304.1597 L663.745196,1570.98271 C663.880541,1571.04338 664.020553,1571.05738 664.160566,1571.10404 C664.725282,1571.31403 665.299333,1571.48202 665.882718,1571.61735 C665.896719,1571.61735 665.91072,1571.62668 665.920054,1571.62668 C665.994728,1571.64068 666.064734,1571.65935 666.139407,1571.67335 C667.058822,1571.86467 667.978236,1572 668.902318,1572 C668.925653,1572 668.948989,1572 668.967657,1572 C669.840401,1572 670.713144,1571.86934 671.585888,1571.68735 C672.075931,1571.59402 672.547306,1571.45869 673.023348,1571.31403 C673.121357,1571.28137 673.219366,1571.25337 673.317374,1571.2207 C673.75608,1571.07604 674.199452,1570.98271 674.628824,1570.79139 C674.750168,1570.74006 674.852843,1570.66539 674.964853,1570.60473 C675.244878,1570.4694 675.501567,1570.31074 675.772258,1570.16142 C675.907603,1570.10542 676.052283,1570.06342 676.178294,1569.98409 C676.313639,1569.90476 676.416315,1569.7881 676.546993,1569.69944 C676.747677,1569.56878 676.915692,1569.41012 677.102375,1569.27013 C677.569083,1568.92948 678.02179,1568.59349 678.451161,1568.19218 C678.600508,1568.07085 678.754521,1567.94952 678.894534,1567.80953 C679.179225,1567.52021 679.398578,1567.17489 679.655268,1566.8669 C679.883954,1566.58225 680.163979,1566.36759 680.378665,1566.06427 C680.448671,1565.96161 680.486008,1565.84962 680.556014,1565.74696 C680.579349,1565.71429 680.612019,1565.68629 680.630687,1565.65363 C680.672691,1565.59296 680.724029,1565.54163 680.761365,1565.48097 C680.910712,1565.25231 680.990052,1564.98632 681.116063,1564.74833 C681.428758,1564.18369 681.718116,1563.61439 681.946803,1563.02641 C681.974806,1562.94708 682.026144,1562.88175 682.054146,1562.80242 C682.147488,1562.5411 682.198826,1562.26578 682.273499,1561.99979 C682.469516,1561.35116 682.614196,1560.70252 682.712204,1560.03989 C682.716871,1559.97922 682.740207,1559.92322 682.749541,1559.86723 C682.768209,1559.72257 682.824214,1559.59191 682.842882,1559.44258 L760.055036,790.976056 L1425.86518,911.515158 L1519.90215,1040.06189 C1522.59972,1043.74839 1526.82343,1045.77363 1531.16848,1045.77363 C1533.12399,1045.77363 1535.10283,1045.36298 1536.97899,1044.49969 L1717.29625,961.721507 C1717.41293,961.670176 1717.50161,961.576847 1717.61828,961.52085 C1718.46302,961.100869 1719.25643,960.596892 1720.00783,960.013586 C1720.26918,959.808262 1720.51187,959.598272 1720.75923,959.378948 C1721.37995,958.818974 1721.94933,958.203003 1722.46738,957.531034 C1722.62606,957.330376 1722.80341,957.148385 1722.94809,956.933728 C1723.55947,956.047102 1724.07752,955.09048 1724.47422,954.059194 C1724.55356,953.849204 1724.58623,953.625214 1724.65624,953.415224 C1724.86159,952.799252 1725.08094,952.192613 1725.19762,951.534644 C1725.24429,951.291988 1725.22562,951.053999 1725.25829,950.81601 C1725.27696,950.657351 1725.34697,950.517357 1725.36097,950.358698 L1742.89533,764.689936 C1742.89533,764.479946 1742.86718,764.269956 1742.87185,764.055299 L1742.87185,764.055299 Z" id="fill" fill="url(#linearGradient-3)" style="mix-blend-mode: overlay;" mask="url(#mask-2)"></path>
            </g>
        </g>
    </g>
</svg>