<?xml version="1.0" encoding="utf-8"?>
<!-- Generator: Adobe Illustrator 23.0.4, SVG Export Plug-In . SVG Version: 6.00 Build 0)  -->
<svg version="1.1" xmlns="http://www.w3.org/2000/svg" xmlns:xlink="http://www.w3.org/1999/xlink" x="0px" y="0px"
	 viewBox="0 0 32 32" style="enable-background:new 0 0 32 32;" xml:space="preserve">
<style type="text/css">
	.st0{fill:url(#XMLID_3_);}
	.st1{fill:#FFFFFF;}
	.st2{fill:url(#XMLID_4_);}
</style>
<g id="Layer_1">
	<linearGradient id="XMLID_3_" gradientUnits="userSpaceOnUse" x1="-32.0488" y1="77.8344" x2="69.0311" y2="-52.2462">
		<stop  offset="0" style="stop-color:#1E8BC3"/>
		<stop  offset="0.4865" style="stop-color:#4E6EB1"/>
		<stop  offset="1" style="stop-color:#854C9D"/>
	</linearGradient>
	<rect id="XMLID_28_" x="0" class="st0" width="32" height="32"/>
	<g>
		<path class="st1" d="M27,19.28c0-0.01,0-0.02,0-0.02c0,0,0-0.01,0-0.01c0-0.01,0-0.01-0.01-0.02c0,0,0-0.01,0-0.01c0,0,0,0,0,0
			c0-0.01-0.01-0.01-0.01-0.02c0,0,0-0.01,0-0.01c-0.01-0.01-0.01-0.02-0.02-0.03c0,0,0,0,0,0l-7.33-6.47l5.72-8.97
			c0.04-0.07,0.03-0.15-0.03-0.21c-0.06-0.05-0.15-0.05-0.21,0l-7.96,6.85l-0.77-2.75c-0.01-0.05-0.05-0.08-0.09-0.1
			c-0.04-0.02-0.09-0.02-0.14,0l-1.62,0.81c0,0,0,0,0,0l0,0c0,0,0,0,0,0c0,0,0,0-0.01,0c0,0,0,0,0,0c0,0-0.01,0-0.01,0.01
			c0,0,0,0,0,0c0,0,0,0,0,0c0,0-0.01,0.01-0.01,0.01c0,0,0,0,0,0c0,0-0.01,0.01-0.01,0.01c0,0,0,0.01-0.01,0.01
			c0,0,0,0.01-0.01,0.01c0,0,0,0.01-0.01,0.01c0,0,0,0.01,0,0.01c0,0,0,0,0,0c0,0,0,0,0,0.01l-0.61,1.53l-1.77,0.11
			c-0.06,0-0.11,0.04-0.14,0.09c0,0.01-0.37,0.79-0.79,1.71l-2.05,0.13c-0.06,0-0.12,0.04-0.14,0.1c-0.02,0.06-0.29,0.76-0.58,1.51
			L6.69,13.7c-0.06,0-0.12,0.04-0.14,0.1c-0.35,0.88-1.45,3.71-1.55,4.04c0,0,0,0,0,0c0,0,0,0.01,0,0.01c0,0,0,0,0,0.01
			c0,0,0,0.01,0,0.01c0,0,0,0,0,0c0,0.01,0,0.01,0,0.02c0,0,0,0,0,0c0,0,0,0,0,0c0,0.01,0,0.02,0,0.02c0,0,0,0,0,0.01c0,0,0,0,0,0
			c0,0.01,0,0.01,0.01,0.02c0,0,0,0.01,0,0.01c0,0,0,0,0,0c0,0.01,0,0.01,0.01,0.02c0,0,0,0.01,0.01,0.01c0,0,0,0,0,0
			c0,0,0,0,0,0.01l1.68,2.3L5.63,22c-0.05,0.07-0.03,0.17,0.04,0.22l2.05,1.44L7,25.25c-0.02,0.04-0.02,0.09,0,0.13
			c0.02,0.04,0.05,0.07,0.09,0.09l7.57,3.05c0,0,0,0,0,0c0.01,0,0.01,0,0.02,0.01c0,0,0,0,0,0c0,0,0,0,0,0c0.01,0,0.02,0,0.03,0
			c0,0,0,0,0,0c0.01,0,0.02,0,0.03,0c0.01,0,0.01,0,0.02,0c0,0,0,0,0,0c0.01,0,0.01,0,0.02,0c0,0,0,0,0,0c0,0,0.01,0,0.01-0.01
			c0,0,0,0,0,0c0,0,0,0,0,0c0,0,0,0,0.01,0c0.01,0,0.01-0.01,0.02-0.01c0,0,0,0,0.01,0c0,0,0.01-0.01,0.01-0.01
			c0,0,0.01-0.01,0.01-0.01c0,0,0,0,0,0c0,0,0,0,0,0c0,0,0,0,0,0c0,0,0-0.01,0-0.01c0-0.01,0.01-0.01,0.01-0.02c0,0,0,0,0,0
			c0,0,0-0.01,0-0.01c0-0.01,0-0.01,0-0.02c0,0,0,0,0,0c0,0,0,0,0,0l0.88-8.79l7.62,1.38l1.08,1.47c0.03,0.04,0.08,0.07,0.13,0.07
			c0.02,0,0.05,0,0.07-0.01l2.06-0.95c0,0,0,0,0,0c0.01,0,0.02-0.01,0.03-0.02c0,0,0.01,0,0.01-0.01c0.01-0.01,0.01-0.01,0.02-0.02
			c0,0,0,0,0.01-0.01c0.01-0.01,0.01-0.02,0.02-0.03c0,0,0,0,0-0.01c0-0.01,0-0.01,0.01-0.02c0,0,0-0.01,0-0.01c0,0,0,0,0-0.01
			L27,19.28C27,19.29,27,19.29,27,19.28z M24.49,4.46l-5.11,8.02l-2.08-1.83L24.49,4.46z M20.98,14.32l-1.7,1.13l-0.53-1.75
			c0-0.01,0-0.01-0.01-0.02c0,0,0,0,0,0c0-0.01-0.01-0.02-0.02-0.02c0,0,0,0,0,0l-3.04-4.01L20.98,14.32z M22.67,20.12l-4.99-3.23
			l1.47-0.98L22.67,20.12z M18.87,15.19l-1.53-1.39l1.13,0.09L18.87,15.19z M16.11,7.89l0.64,2.28l-1.88-1.66L16.11,7.89z
			 M14.63,8.79l3.61,4.77l-1.35-0.11c-0.07-0.01-0.13,0.03-0.16,0.1c-0.03,0.06-0.01,0.14,0.04,0.18l2.15,1.95l-1.48,0.98
			l-3.33-6.58L14.63,8.79z M13.91,10.82l1.44,8.03l-2.73-3.24L13.91,10.82z M12.18,10.36l1.32-0.08l-2.17,1.93
			C11.71,11.37,12.06,10.61,12.18,10.36z M13.65,10.56l-1.31,4.83l-2.38-1.56l1.01-0.89c0,0,0,0,0,0L13.65,10.56z M5.37,17.92
			l3.83-3.4l-2.55,5.14L5.37,17.92z M9.58,14.47l0.16,3l-2.63,1.97L9.58,14.47z M6.89,20l2.87-2.15l0.81,7.2L6.89,20z M9.88,14.16
			l2.28,1.49l-2.12,1.59L9.88,14.16z M12.29,15.96l0.22,7.06L10.1,17.6L12.29,15.96z M9.21,12.29l1.78-0.11
			c-0.08,0.18-0.17,0.37-0.25,0.55L9.6,13.74c0,0,0,0,0,0l-1.44,1.28C8.44,14.29,8.91,13.08,9.21,12.29z M6.82,14.01l1.42-0.1
			c-0.27,0.7-0.53,1.37-0.6,1.56l-2.12,1.89C5.82,16.57,6.39,15.11,6.82,14.01z M5.99,22.05l0.93-1.48l3.19,4.37L5.99,22.05z
			 M7.36,25.23l0.64-1.38l5.49,3.86L7.36,25.23z M10.96,25.54l-0.79-7l2.38,5.35c0,0,0,0,0,0l1.79,4.02L10.96,25.54z M14.62,27.75
			l-1.74-3.92l2.52-3.81L14.62,27.75z M12.84,23.32l-0.22-7.22l2.8,3.32L12.84,23.32z M15.7,19l-1.41-7.87l2.91,5.75L15.7,19z
			 M15.89,19.29l1.54-2.19l5.27,3.42L15.89,19.29z M19.42,15.73l1.73-1.15l1.88,5.48L19.42,15.73z M21.59,14.86l4.96,4.38
			l-2.99,1.38L21.59,14.86z M24.63,22.15l-0.8-1.09l2.28,0.41L24.63,22.15z M26.5,21.21L24,20.76l2.66-1.22L26.5,21.21z"/>
	</g>
</g>
<g id="Layer_2">
</g>
<g id="Layer_3">
</g>
</svg>
