<?xml version="1.0" encoding="UTF-8"?>
<svg width="149px" height="126px" viewBox="0 0 149 126" version="1.1" xmlns="http://www.w3.org/2000/svg" xmlns:xlink="http://www.w3.org/1999/xlink">
    <!-- Generator: sketchtool 57.1 (101010) - https://sketch.com -->
    <title>F4E194EA-40CA-4A82-820B-D772D33D2930</title>
    <desc>Created with sketchtool.</desc>
    <g id="Layouts" stroke="none" stroke-width="1" fill="none" fill-rule="evenodd">
        <g id="about" transform="translate(-843.000000, -1408.000000)" fill="#1E8CC3">
            <g id="blockchain" transform="translate(262.000000, 1158.000000)">
                <g id="validators" transform="translate(493.000000, 190.000000)">
                    <g id="icon" transform="translate(88.000000, 60.000000)">
                        <path d="M74.4730769,0 C33.3953846,0 0,24.6007317 0,54.9997683 C0,70.5123659 8.62384615,84.9278415 23.6746154,95.2698293 C21.95,98.5604268 19.5984615,102.007756 16.4630769,105.455085 C12.8569231,109.686073 12.5430769,115.640341 15.6784615,120.184024 C18.0307692,123.474622 21.6369231,125.355402 25.3992308,125.355402 C26.8107692,125.355402 28.2215385,125.041939 29.6323077,124.571744 C39.1961538,120.967683 50.7984615,115.953805 64.4392308,109.37261 C67.8884615,109.686073 71.1807692,109.842805 74.3161538,109.842805 C115.393846,109.842805 148.789231,85.2413049 148.789231,54.8430366 C148.789231,24.444 115.550769,0 74.4730769,0 M74.4730769,96.993878 C71.3376923,96.993878 67.8884615,96.8371463 64.1253846,96.3669512 C62.8707692,96.2102195 61.6169231,96.3669512 60.5192308,96.993878 C48.1330769,102.948146 37.4715385,107.805293 28.5353846,111.252622 C32.9253846,105.611817 36.0607692,100.127744 37.9423077,94.7996341 C38.8830769,91.8225 37.7853846,88.6886341 34.9630769,87.1220854 C20.8530769,78.9735732 12.8569231,67.3785 12.8569231,54.9997683 C12.8569231,31.8088537 40.4507692,13.0056585 74.3161538,13.0056585 C108.181538,13.0056585 135.776154,31.8088537 135.776154,54.9997683 C135.776154,78.1899146 108.338462,96.993878 74.4730769,96.993878" id="Fill-1"></path>
                        <path d="M92.3510769,39.2624451 C91.4833846,38.5210427 90.2433846,38.5210427 89.4987692,39.3861402 L70.8995385,59.2841524 L60.9795385,48.5318963 C60.2356923,47.6667988 58.9956923,47.6667988 58.128,48.4082012 L52.2995385,53.8461768 C51.4318462,54.5875793 51.4318462,55.8237622 52.1756923,56.6888598 L69.5356923,75.2277622 C70.2795385,76.0928598 71.6433846,76.0928598 72.5110769,75.2277622 L98.4272308,47.4194085 C99.1710769,46.554311 99.1710769,45.318128 98.3026154,44.5767256 L92.3510769,39.2624451 Z" id="Fill-4"></path>
                    </g>
                </g>
            </g>
        </g>
    </g>
</svg>