<?xml version="1.0" encoding="UTF-8"?>
<svg width="149px" height="106px" viewBox="0 0 149 106" version="1.1" xmlns="http://www.w3.org/2000/svg" xmlns:xlink="http://www.w3.org/1999/xlink">
    <!-- Generator: sketchtool 57.1 (101010) - https://sketch.com -->
    <title>DAEB1954-9BE8-4169-9274-244D0A2823EE</title>
    <desc>Created with sketchtool.</desc>
    <g id="Layouts" stroke="none" stroke-width="1" fill="none" fill-rule="evenodd">
        <g id="about" transform="translate(-843.000000, -1803.000000)" fill="#1E8CC3">
            <g id="blockchain" transform="translate(262.000000, 1158.000000)">
                <g id="forking" transform="translate(493.000000, 585.000000)">
                    <path d="M237,78.968303 L237,83.4313231 C236.862333,83.7728585 236.658334,84.1031756 236.596384,84.457799 C235.013208,93.5221985 229.66733,99.3332863 220.867876,101.7097 C212.266163,104.032514 203.959183,100.729343 198.400546,93.5140964 C197.70908,92.6166311 196.189106,91.8799617 195.047092,91.8718595 C179.93621,91.7640391 164.824703,91.7983173 149.713196,91.8051729 C148.915976,91.8051729 148.118756,91.8793384 147.407266,91.9148631 C148.544274,95.5807595 149.936592,99.0391171 150.641825,102.630848 C151.371463,106.343487 151.519142,110.180152 151.769447,113.971942 C152.388325,123.362296 161.162123,132.840527 170.566688,134.103211 C173.656696,134.517665 176.094036,134.225989 178.413733,131.192058 C184.973588,122.612539 197.856759,121.258862 206.797636,127.655172 C215.682819,134.011595 218.344807,146.540584 212.778035,155.688498 C209.208068,161.555054 203.763945,164.585246 197.229121,166 L191.627932,166 C185.88407,164.595218 180.784742,162.100389 177.396871,157.059625 C176.476376,155.689744 175.459515,155.487814 173.984595,155.343223 C170.393978,154.990469 166.738906,154.691314 163.274067,153.762687 C147.503007,149.534628 130.164416,132.259044 130.501701,111.019656 C130.591811,105.366871 128.307782,100.48441 123.802927,96.8197602 C113.573609,104.840233 101.023342,104.263113 93.3727857,95.0323085 C90.832821,91.9672152 89.7490026,87.7042551 88,83.9891227 L88,78.4105034 C88.1670782,77.9948024 88.3998614,77.5928128 88.4918483,77.1609076 C90.1044349,69.5966463 94.4979043,64.350837 101.726698,61.5375326 C103.43878,60.870666 105.269132,60.504201 107.045042,60 L111.526118,60 C117.96833,61.2869902 123.376158,64.1707207 127.109449,69.7836182 C127.45487,70.3027769 128.503645,70.5932067 129.2264,70.5944532 C151.403377,70.6362102 173.580354,70.6362102 195.757331,70.5932067 C196.477582,70.591337 197.517597,70.2772241 197.866772,69.7512097 C201.60194,64.1295868 207.034173,61.283874 213.473882,60 L217.954958,60 C218.386733,60.1576797 218.805993,60.379553 219.252161,60.4630672 C227.681164,62.0473427 233.207887,66.9341659 235.924316,75.0001352 C236.361098,76.296474 236.645193,77.6445417 237,78.968303 M109.207673,91.7996164 C115.061043,91.7814898 119.918202,86.9470187 119.878153,81.177688 C119.838104,75.4401425 114.876444,70.5794954 109.086901,70.6055662 C103.251052,70.6318476 98.4489606,75.4713045 98.4751352,81.299843 C98.5015245,87.1788639 103.242917,91.8176377 109.207673,91.7996164 M215.677813,91.7995941 C221.576238,91.7858525 226.342661,87.051723 226.340784,81.2100965 C226.338906,75.4395193 221.446705,70.5988158 215.625249,70.6069078 C209.77313,70.6150201 205.001701,75.4083573 205.016684,81.2649416 C205.031737,87.1769942 209.723695,91.813275 215.677813,91.7995941 M183.708738,144.895854 C183.743341,150.766773 188.497249,155.421128 194.438226,155.399391 C200.274075,155.377501 205.088056,150.533681 205.048633,144.722594 C205.009836,138.945784 200.123892,134.179246 194.26489,134.200985 C188.397127,134.223496 183.674508,139.008108 183.708738,144.895854" id="Fill-1"></path>
                </g>
            </g>
        </g>
    </g>
</svg>