<?xml version="1.0" encoding="UTF-8"?>
<svg width="145px" height="130px" viewBox="0 0 145 130" version="1.1" xmlns="http://www.w3.org/2000/svg" xmlns:xlink="http://www.w3.org/1999/xlink">
    <!-- Generator: sketchtool 57.1 (101010) - https://sketch.com -->
    <title>1AD7C23B-C976-4FB3-9539-83BF99FED17E</title>
    <desc>Created with sketchtool.</desc>
    <g id="Layouts" stroke="none" stroke-width="1" fill="none" fill-rule="evenodd">
        <g id="about" transform="translate(-264.000000, -2500.000000)" fill="#1E8CC3">
            <g id="validators" transform="translate(262.000000, 2278.000000)">
                <g id="lock" transform="translate(2.000000, 217.000000)">
                    <g id="lock-" transform="translate(0.000000, 5.000000)">
                        <path d="M69.4520455,24.117358 L59.9884091,24.117358 C52.0511932,24.117358 45.4869886,30.6807102 45.4869886,38.6187784 L45.4869886,51.8980398 L40.9077273,51.8980398 C37.7023295,51.8980398 35.1071591,54.4932102 35.1071591,57.698608 L35.1071591,89.7534375 C35.1071591,92.9588352 37.7023295,95.5540057 40.9077273,95.5540057 L88.3793182,95.5540057 C91.5855682,95.5540057 94.1798864,92.9588352 94.1798864,89.7534375 L94.1798864,57.698608 C94.1798864,54.4932102 91.5855682,51.8980398 88.3793182,51.8980398 L83.8000568,51.8980398 L83.8000568,38.6187784 C83.9534659,30.6807102 77.3892614,24.117358 69.4520455,24.117358 L69.4520455,24.117358 Z M67.6205114,74.0315625 L67.6205114,81.511108 C67.6205114,83.1900852 66.2466477,84.411392 64.7202273,84.411392 C63.04125,84.411392 61.8199432,83.0375284 61.8199432,81.511108 L61.8199432,74.0315625 C60.1409659,72.9628125 58.9196591,71.1312784 58.9196591,68.9946307 C58.9196591,65.7883807 61.5148295,63.1940625 64.7202273,63.1940625 C67.925625,63.1940625 70.5207955,65.7883807 70.5207955,68.9946307 C70.5207955,71.1312784 69.2994886,73.1153693 67.6205114,74.0315625 L67.6205114,74.0315625 Z M73.5736364,51.8980398 L55.8668182,51.8980398 L55.8668182,38.6187784 C55.8668182,36.3287216 57.6983523,34.4971875 59.9884091,34.4971875 L69.4520455,34.4971875 C71.74125,34.4971875 73.5736364,36.3287216 73.5736364,38.6187784 L73.5736364,51.8980398 Z" id="Fill-1"></path>
                        <path d="M143.483523,65.6360795 C141.346875,63.4994318 137.988068,63.4994318 135.85142,65.6360795 L129.593182,71.8943182 L129.593182,64.7198864 C129.593182,29.0019886 100.591193,1.40687462e-12 64.8724432,1.40687462e-12 C29.0019886,1.40687462e-12 1.27897692e-13,29.0019886 1.27897692e-13,64.7198864 C1.27897692e-13,100.438636 29.0019886,129.440625 64.7198864,129.440625 C83.1894886,129.440625 100.74375,121.503409 112.955114,107.765625 C114.939205,105.475568 114.786648,102.117614 112.497443,100.133523 C110.207386,98.1485795 106.849432,98.3011364 104.865341,100.591193 C94.6380682,112.03892 79.9840909,118.603125 64.7198864,118.603125 C34.9551136,118.603125 10.8375,94.4855114 10.8375,64.7198864 C10.8375,34.9551136 34.9551136,10.8375 64.7198864,10.8375 C94.4855114,10.8375 118.603125,34.9551136 118.603125,64.7198864 L118.603125,71.8943182 L112.191477,65.6360795 C110.05483,63.4994318 106.696875,63.4994318 104.559375,65.6360795 C102.422727,67.7727273 102.422727,71.1315341 104.559375,73.2681818 L120.129545,88.8375 C121.197443,89.90625 122.571307,90.3639205 123.94517,90.3639205 C125.319034,90.3639205 126.692898,89.90625 127.761648,88.8375 L143.330966,73.2681818 C145.467614,71.1315341 145.467614,67.7727273 143.483523,65.6360795" id="Fill-3"></path>
                    </g>
                </g>
            </g>
        </g>
    </g>
</svg>