<?xml version="1.0" encoding="UTF-8"?>
<svg width="145px" height="136px" viewBox="0 0 145 136" version="1.1" xmlns="http://www.w3.org/2000/svg" xmlns:xlink="http://www.w3.org/1999/xlink">
    <!-- Generator: Sketch 57.1 (83088) - https://sketch.com -->
    <title>Group 11</title>
    <desc>Created with Sketch.</desc>
    <defs>
        <polygon id="path-1" points="0.462640755 0.770169394 40.664713 0.770169394 40.664713 40.9728577 0.462640755 40.9728577"></polygon>
        <polygon id="path-3" points="0 0.914672204 80.9299272 0.914672204 80.9299272 21.355979 0 21.355979"></polygon>
    </defs>
    <g id="Layouts" stroke="none" stroke-width="1" fill="none" fill-rule="evenodd">
        <g id="about" transform="translate(-263.000000, -3020.000000)">
            <g id="Group-11" transform="translate(335.500000, 3088.003876) scale(-1, 1) translate(-335.500000, -3088.003876) translate(263.000000, 3020.000000)">
                <path d="M61.8731878,90.3548002 C64.2756968,92.7757901 68.0296171,92.7757901 70.2819693,90.3548002 L72.3841647,88.2364341 C74.7866738,85.8154442 74.7866738,82.0326476 72.3841647,79.6116577 L47.3079768,54.6451998 C44.9054678,52.2242099 41.1515474,52.2242099 38.7490384,54.6451998 L36.646843,56.7635659 C34.244334,59.1845558 34.244334,62.9673524 36.646843,65.3883423 L61.8731878,90.3548002 Z" id="Fill-1" fill="#1E8CC3"></path>
                <g id="Group-5" transform="translate(85.426357, 0.000000)">
                    <mask id="mask-2" fill="white">
                        <use xlink:href="#path-1"></use>
                    </mask>
                    <g id="Clip-4"></g>
                    <path d="M27.8795159,39.1244512 C30.3455983,41.5889933 34.1964453,41.5889933 36.659447,39.1244512 L38.8174617,36.9679769 C41.2804634,34.5034348 41.2804634,30.6525879 38.8174617,28.1880458 L13.0922636,2.61842191 C10.6292618,0.153879845 6.77841487,0.153879845 4.31233247,2.61842191 L2.30989205,4.77489621 C-0.153109676,7.23943827 -0.153109676,11.0902852 2.30989205,13.5548273 L27.8795159,39.1244512 Z" id="Fill-3" fill="#1E8CC3" mask="url(#mask-2)"></path>
                </g>
                <path d="M141.627162,93.7561111 L97.3509775,54.3487852 L108.762365,42.9373974 L83.9631374,17.9844961 L51.7054264,50.2391641 L76.6583277,75.193587 L88.0697155,63.7821992 L127.477041,107.906232 C131.280837,112.166483 137.97704,112.470787 142.083618,108.362687 C146.191717,104.253066 145.887414,97.559907 141.627162,93.7561111" id="Fill-6" fill="#1E8CC3"></path>
                <g id="Group-10" transform="translate(0.000000, 114.651163)">
                    <mask id="mask-4" fill="white">
                        <use xlink:href="#path-3"></use>
                    </mask>
                    <g id="Clip-9"></g>
                    <path d="M76.0435735,9.3047608 L68.714043,9.3047608 L68.714043,7.01655482 C68.714043,3.66204485 65.9654691,0.914672204 62.6061009,0.914672204 L18.3235208,0.914672204 C14.9641527,0.914672204 12.2155788,3.66204485 12.2155788,7.01655482 L12.2155788,9.3047608 L4.88604827,9.3047608 C2.13747433,9.3047608 -0.000305397104,11.4404197 -0.000305397104,14.1862669 L-0.000305397104,16.4744729 C-0.000305397104,19.22032 2.13747433,21.355979 4.88604827,21.355979 L76.0435735,21.355979 C78.7921474,21.355979 80.9299272,19.22032 80.9299272,16.4744729 L80.9299272,14.1862669 C80.9299272,11.4404197 78.6394489,9.3047608 76.0435735,9.3047608" id="Fill-8" fill="#1E8CC3" mask="url(#mask-4)"></path>
                </g>
            </g>
        </g>
    </g>
</svg>