<?xml version="1.0" encoding="UTF-8"?>
<svg width="146px" height="147px" viewBox="0 0 146 147" version="1.1" xmlns="http://www.w3.org/2000/svg" xmlns:xlink="http://www.w3.org/1999/xlink">
    <!-- Generator: sketchtool 57.1 (101010) - https://sketch.com -->
    <title>D45BD026-EFD5-4F03-AF7D-EFE5F6CD757C</title>
    <desc>Created with sketchtool.</desc>
    <defs>
        <polygon id="path-1" points="0.570551562 0.182368927 145.523864 0.182368927 145.523864 62.0879923 0.570551562 62.0879923"></polygon>
    </defs>
    <g id="Layouts" stroke="none" stroke-width="1" fill="none" fill-rule="evenodd">
        <g id="about" transform="translate(-263.000000, -2750.000000)">
            <g id="validators" transform="translate(262.000000, 2278.000000)">
                <g id="hand" transform="translate(1.000000, 472.000000)">
                    <g>
                        <g id="Group-7" transform="translate(-0.000000, 84.073466)">
                            <mask id="mask-2" fill="white">
                                <use xlink:href="#path-1"></use>
                            </mask>
                            <g id="Clip-6"></g>
                            <path d="M131.295767,11.6575568 C127.245767,13.3535795 120.702017,15.3572727 113.380142,17.2075568 C110.888097,21.5234659 106.370199,25.2231818 98.892358,26.9192045 C97.1792898,27.3811364 95.1534375,27.5353977 93.1284375,27.6896591 C87.9875284,27.9981818 81.7565625,27.6896591 75.0576989,27.3811364 L73.6557102,27.3811364 C71.9417898,27.226875 70.5398011,26.1478977 70.3838352,24.4527273 C70.0727557,22.4481818 71.7858239,20.59875 73.8108239,20.7530114 L75.3687784,20.7530114 C84.092642,21.2149432 92.3494602,21.5234659 97.4903693,20.2902273 C106.99321,18.1322727 109.486108,12.27375 108.707131,7.34079545 C108.084119,3.33340909 104.96821,-0.366306818 100.138381,0.249886364 C93.4403693,1.02119318 85.339517,0.712670455 77.7057102,0.558409091 C68.8258807,0.249886364 59.7909375,0.404147727 53.2471875,1.32886364 C46.0812784,2.40784091 31.7494602,8.26636364 19.2866761,17.3609659 C13.2108239,21.8319886 6.35599432,27.226875 2.30599432,30.4646591 C0.280994318,32.1606818 -0.0309375,35.0890909 1.68298295,37.0936364 L21.3116761,60.3709091 C23.0255966,62.3746023 25.9855398,62.683125 28.0105398,60.9871023 L34.7094034,55.4379545 C36.267358,54.0504545 38.4483239,53.5876705 40.4733239,54.2047159 C53.2471875,57.5959091 66.8008807,59.7538636 75.5247443,59.908125 C94.686392,60.0623864 130.672756,36.1680682 140.954574,28.614375 C151.080426,21.0606818 142.823608,6.87886364 131.295767,11.6575568" id="Fill-5" fill="#1E8CC3" mask="url(#mask-2)"></path>
                        </g>
                        <path d="M68.8260511,56.2670455 C67.891108,59.1963068 65.866108,62.8960227 61.9712216,67.3661932 C59.4791761,70.1411932 62.4391193,74.4571023 66.0220739,73.0696023 C73.3439489,70.2954545 81.7558807,66.5957386 89.5456534,62.7417614 C91.8825852,63.0502841 94.3746307,63.2036932 96.8675284,63.2036932 C121.481165,63.2036932 141.577756,49.021875 141.577756,31.6022727 C141.577756,14.1826705 121.481165,-2.84217094e-14 96.8675284,-2.84217094e-14 C72.0979261,-2.84217094e-14 52.1573011,14.1826705 52.1573011,31.6022727 C52.1573011,41.6224432 58.7001989,50.409375 68.8260511,56.2670455 M78.0169602,29.5977273 L82.3797443,25.5903409 C83.1578693,24.8190341 84.5607102,24.8190341 85.1837216,25.74375 L93.2845739,34.3772727 L108.551335,18.1909091 C109.330312,17.4196023 110.576335,17.2653409 111.355312,18.0366477 L115.717244,22.0440341 C116.496222,22.8153409 116.652187,24.0485795 115.87321,24.8190341 L94.6865625,47.1715909 C93.9075852,48.0971591 92.5055966,48.0971591 91.7266193,47.1715909 L77.8618466,32.3727273 C77.0828693,31.6022727 77.0828693,30.3690341 78.0169602,29.5977273" id="Fill-8" fill="#1E8CC3"></path>
                    </g>
                </g>
            </g>
        </g>
    </g>
</svg>