<?xml version="1.0" encoding="UTF-8"?>
<svg width="115px" height="36px" viewBox="0 0 115 36" version="1.1" xmlns="http://www.w3.org/2000/svg" xmlns:xlink="http://www.w3.org/1999/xlink">
    <!-- Generator: sketchtool 57.1 (101010) - https://sketch.com -->
    <title>41ACC256-9198-4B91-B0C7-57306904273B</title>
    <desc>Created with sketchtool.</desc>
    <g id="Layouts" stroke="none" stroke-width="1" fill="none" fill-rule="evenodd">
        <g id="auction" transform="translate(-263.000000, -2460.000000)" fill="#73BEE1" fill-rule="nonzero">
            <g id="footer" transform="translate(0.000000, 2400.000000)">
                <g id="logo-blue" transform="translate(263.000000, 60.000000)">
                    <g id="Group">
                        <polygon id="Path" points="0 2.76359578 0 0.0570382617 14.1774476 0.0570382617 14.1774476 2.76359578 8.67984314 2.76359578 8.67984314 19.6248419 5.49760445 19.6248419 5.49760445 2.76359578"></polygon>
                        <path d="M14.9489275,19.6248419 L14.9489275,5.80502309 L17.8903681,5.80502309 L17.8903681,7.28985783 C18.1950702,6.77927339 18.6340636,6.33216702 19.2045697,5.94853871 C19.7750758,5.5649104 20.4539411,5.37355623 21.2420916,5.37355623 C21.9811563,5.37355623 22.5840776,5.47751307 23.0508553,5.68450676 L23.0508553,8.43890281 C22.4395987,8.24754865 21.8366775,8.15187156 21.2420916,8.15187156 C20.1973985,8.15187156 19.3972081,8.55481928 18.8433727,9.36163469 C18.288611,10.1684501 18.0116933,11.2420574 18.0116933,12.5833765 L18.0116933,19.6248419 L14.9489275,19.6248419 Z" id="Path"></path>
                        <path d="M24.4724899,14.6192745 L24.4724899,5.80502309 L27.5343295,5.80502309 L27.5343295,14.2356462 C27.5343295,16.3911405 28.2974741,17.4693476 29.8246893,17.4693476 C30.740648,17.4693476 31.455633,17.0820394 31.9705703,16.307423 C32.4845815,15.5328066 32.7420502,14.6109947 32.7420502,13.5410673 L32.7420502,5.80502309 L35.7798101,5.80502309 L35.7798101,19.6248419 L32.8383694,19.6248419 L32.8383694,18.0204108 L32.8142896,18.0204108 C32.5892361,18.5153557 32.1595042,18.9781016 31.5241678,19.4095685 C30.8888314,19.8410353 30.0979025,20.0563088 29.1495287,20.0563088 C28.5864317,20.0563088 28.0520453,19.9725913 27.5463694,19.8051564 C27.0397674,19.6377215 26.5461314,19.3663298 26.0636092,18.9909812 C25.581087,18.6156327 25.1958101,18.0535298 24.9059263,17.3028327 C24.6178948,16.5512156 24.4724899,15.6570028 24.4724899,14.6192745 Z" id="Path"></path>
                        <path d="M38.0720222,16.7508495 L40.2660628,15.4812882 C41.2301811,16.8860854 42.4841831,17.588944 44.0271429,17.588944 C44.7819521,17.588944 45.3811688,17.4417484 45.8229406,17.1455175 C46.2647123,16.8502065 46.4860613,16.4555385 46.4860613,15.9596736 C46.4860613,15.5604058 46.3054628,15.2089765 45.9433396,14.9063057 C45.5812164,14.602715 45.1996441,14.3754819 44.7976966,14.2236865 C44.3957491,14.0718911 43.7928279,13.8685773 42.9889329,13.6128251 C42.8444541,13.5649866 42.7397995,13.5327876 42.6758954,13.517148 C42.097054,13.3257939 41.6108272,13.1381196 41.217215,12.9541252 C40.8236028,12.7710508 40.4096154,12.5226584 39.9752528,12.2117078 C39.5408902,11.9007573 39.2111821,11.5088493 38.9870547,11.0378236 C38.7620012,10.566798 38.6499375,10.0203346 38.6499375,9.3975136 C38.6499375,8.18407058 39.1639487,7.20982027 40.1928972,6.47568265 C41.2209196,5.74154502 42.4990015,5.37355623 44.0262167,5.37355623 C45.167229,5.37355623 46.2443371,5.67254712 47.2575412,6.27144887 C48.2698191,6.87035062 49.0255545,7.63300738 49.5238212,8.55849917 L47.4983392,9.78022194 C46.5499654,8.48674136 45.4006178,7.84000107 44.0502965,7.84000107 C43.3103056,7.84000107 42.7444303,7.98811655 42.3508181,8.28342755 C41.9572059,8.57873855 41.7599367,8.96604675 41.7599367,9.44535214 C41.7599367,9.84461997 41.9321999,10.1997292 42.2785787,10.5115996 C42.6240312,10.8225502 42.9815237,11.0507032 43.3519822,11.1942188 C43.7215146,11.3377345 44.2438611,11.5217289 44.9190218,11.745282 C45.0959157,11.7931206 45.2237239,11.8335994 45.3052248,11.8648784 C48.1660907,12.7747307 49.5969867,14.1482488 49.5969867,15.9845129 C49.5969867,17.1188383 49.1181691,18.080209 48.1623861,18.8704649 C47.205677,19.6607208 45.8516511,20.0563088 44.0993823,20.0563088 C42.749061,20.0563088 41.5469231,19.7609978 40.4948209,19.1703758 C39.4417925,18.5788338 38.634193,17.7729383 38.0720222,16.7508495 Z" id="Path"></path>
                        <path d="M50.7546696,6.33216702 L50.7546696,3.74520586 L52.9005506,3.74520586 L52.9005506,0.0570382617 L55.9383105,0.0570382617 L55.9383105,3.74520586 L59.1205492,3.74520586 L59.1205492,6.33216702 L55.9383105,6.33216702 L55.9383105,15.1942569 C55.9383105,15.849277 56.0707494,16.3203026 56.3356272,16.6073339 C56.6005051,16.8943651 57.0061572,17.0388007 57.5535096,17.0388007 L59.144629,17.0388007 L59.144629,19.6257619 L57.1673066,19.6257619 C54.3221852,19.6257619 52.8996244,18.2209647 52.8996244,15.4104503 L52.8996244,6.33216702 L50.7546696,6.33216702 Z" id="Path"></path>
                        <polygon id="Path" points="61.797112 19.6248419 61.797112 0.0570382617 64.8348718 0.0570382617 64.8348718 19.6248419"></polygon>
                        <g transform="translate(68.534826, 0.000000)" id="Rectangle">
                            <rect x="0.0379719984" y="0.0570382617" width="3.27948405" height="3.32937853"></rect>
                            <rect x="0.182450821" y="5.44623402" width="3.01368007" height="14.1786079"></rect>
                        </g>
                        <path d="M75.3475585,19.6248419 L75.3475585,5.80502309 L78.313079,5.80502309 L78.313079,7.55296981 L78.3371588,7.55296981 C78.5779568,7.04238537 79.0243593,6.55112035 79.6754402,6.0800947 C80.326521,5.60906906 81.1665357,5.37355623 82.1954843,5.37355623 C83.5772945,5.37355623 84.6794086,5.79674334 85.4990481,6.64311754 C86.3186876,7.48949175 86.7289704,8.85473014 86.7289704,10.7388327 L86.7289704,19.6248419 L83.6671307,19.6248419 L83.6671307,11.1463803 C83.6671307,9.02308501 82.9438105,7.96051739 81.4971699,7.96051739 C80.6127002,7.96051739 79.8773401,8.31194668 79.2910895,9.01388529 C78.7039127,9.71674387 78.4112505,10.5870373 78.4112505,11.6247657 L78.4112505,19.6239219 L75.3475585,19.6239219 L75.3475585,19.6248419 Z" id="Path"></path>
                        <path d="M89.0674898,12.6551343 C89.0674898,10.4361619 89.682451,8.66705586 90.9123732,7.34965601 C92.1422955,6.03225616 93.6889599,5.37355623 95.5542185,5.37355623 C97.387062,5.37355623 98.8976067,6.03593605 100.086779,7.36161565 C101.27595,8.68729524 101.871462,10.4113227 101.871462,12.534618 C101.871462,12.9504453 101.847383,13.3570729 101.799223,13.7563408 L92.1543354,13.7563408 C92.1543354,14.8097087 92.4710775,15.716801 93.1064138,16.4748579 C93.7417502,17.2338348 94.6132539,17.6128632 95.7227771,17.6128632 C96.494257,17.6128632 97.1731222,17.4251889 97.760299,17.0498404 C98.3465496,16.6744918 98.7929521,16.1915065 99.0985804,15.6008845 L101.654744,16.4628983 C101.204637,17.4849871 100.472982,18.3396411 99.4607036,19.0259402 C98.4484257,19.7122392 97.1860883,20.0553888 95.6755437,20.0553888 C93.7306364,20.0553888 92.1432217,19.3847292 90.9132994,18.0434101 C89.6833771,16.702091 89.0674898,14.9063057 89.0674898,12.6551343 Z M92.2015689,11.6256857 L98.7596109,11.6256857 C98.7596109,10.5723178 98.4780624,9.67350519 97.9158916,8.93108781 C97.3527946,8.18867044 96.5655703,7.81700177 95.5532924,7.81700177 C94.5410145,7.81700177 93.7324887,8.19603022 93.1295675,8.95500709 C92.5266463,9.71306398 92.2173134,10.6035968 92.2015689,11.6256857 Z" id="Shape"></path>
                        <path d="M103.317177,16.7508495 L105.511217,15.4812882 C106.475336,16.8860854 107.729338,17.588944 109.272298,17.588944 C110.027107,17.588944 110.626323,17.4417484 111.068095,17.1455175 C111.509867,16.8502065 111.731216,16.4555385 111.731216,15.9596736 C111.731216,15.5604058 111.550617,15.2089765 111.188494,14.9063057 C110.826371,14.602715 110.444799,14.3754819 110.042851,14.2236865 C109.640904,14.0718911 109.037983,13.8685773 108.234088,13.6128251 C108.089609,13.5649866 107.984954,13.5327876 107.92105,13.517148 C107.342209,13.3257939 106.855982,13.1381196 106.46237,12.9541252 C106.068757,12.7710508 105.65477,12.5226584 105.220407,12.2117078 C104.786045,11.9007573 104.456337,11.5088493 104.232209,11.0378236 C104.007156,10.566798 103.895092,10.0203346 103.895092,9.3975136 C103.895092,8.18407058 104.409103,7.20982027 105.438052,6.47568265 C106.466074,5.74154502 107.744156,5.37355623 109.271371,5.37355623 C110.412384,5.37355623 111.489492,5.67254712 112.502696,6.27144887 C113.514974,6.87035062 114.270709,7.63300738 114.768976,8.55849917 L112.743494,9.78022194 C111.79512,8.48674136 110.645772,7.84000107 109.295451,7.84000107 C108.55546,7.84000107 107.989585,7.98811655 107.595973,8.28342755 C107.202361,8.57873855 107.005091,8.96604675 107.005091,9.44535214 C107.005091,9.84461997 107.177355,10.1997292 107.523733,10.5115996 C107.869186,10.8225502 108.226678,11.0507032 108.597137,11.1942188 C108.966669,11.3377345 109.489016,11.5217289 110.164176,11.745282 C110.34107,11.7931206 110.468879,11.8335994 110.550379,11.8648784 C113.411245,12.7747307 114.842141,14.1482488 114.842141,15.9845129 C114.842141,17.1188383 114.363324,18.080209 113.407541,18.8704649 C112.450832,19.6607208 111.096806,20.0563088 109.344537,20.0563088 C107.994216,20.0563088 106.792078,19.7609978 105.739976,19.1703758 C104.686947,18.5788338 103.879348,17.7729383 103.317177,16.7508495 Z" id="Path"></path>
                    </g>
                    <g id="Group" transform="translate(12.887931, 25.775862)">
                        <polygon id="Path" points="0.0334131545 9.62877155 0.0334131545 0.24061602 5.24215269 0.24061602 5.24215269 1.26194325 1.10634667 1.26194325 1.10634667 4.39924569 4.81056611 4.39924569 4.81056611 5.40818068 1.10634667 5.40818068 1.10634667 9.62877155"></polygon>
                        <path d="M8.19271986,4.94037356 C8.19271986,3.46363147 8.51478555,2.27500898 9.1607732,1.37244073 C9.80583271,0.469872486 10.6662214,0.0185883621 11.7428675,0.0185883621 C12.8269388,0.0185883621 13.6873275,0.469872486 14.3249619,1.37244073 C14.9625962,2.27500898 15.2818775,3.46776221 15.2818775,4.9527658 C15.2818775,6.44603089 14.9588837,7.63465338 14.3138241,8.52069864 C13.6687646,9.40674389 12.8120885,9.84976652 11.7428675,9.84976652 C10.6662214,9.84976652 9.80583271,9.40467852 9.1607732,8.51450251 C8.51478555,7.6253592 8.19271986,6.43363865 8.19271986,4.94037356 Z M9.29813839,4.94037356 C9.29813839,6.13002874 9.51718018,7.07287177 9.95619191,7.76993534 C10.3952036,8.46699892 10.9901434,8.81604705 11.7419394,8.81604705 C12.4863102,8.81604705 13.0784656,8.47319504 13.5165492,7.78852371 C13.9546327,7.10385237 14.1746027,6.15791128 14.1746027,4.9527658 C14.1746027,3.76414332 13.9611297,2.81407148 13.5332557,2.10461566 C13.1053817,1.39515984 12.5085857,1.03991559 11.7419394,1.03991559 C10.9901434,1.03991559 10.3942755,1.39309447 9.95619191,2.09841954 C9.51718018,2.80374461 9.29813839,3.75175108 9.29813839,4.94037356 Z" id="Shape"></path>
                        <path d="M19.1373843,6.19612069 L19.1373843,0.24061602 L20.2214555,0.24061602 L20.2214555,6.17133621 C20.2214555,7.06564296 20.4005871,7.72966056 20.7579223,8.1644217 C21.1152574,8.59918283 21.5848978,8.81604705 22.1677717,8.81604705 C22.7645678,8.81604705 23.2407053,8.59092134 23.5943278,8.13963721 C23.9479504,7.68835309 24.1252257,7.03259698 24.1252257,6.17133621 L24.1252257,0.24061602 L25.209297,0.24061602 L25.209297,6.19612069 C25.209297,7.35272989 24.9494169,8.25116739 24.4296567,8.8904005 C23.9098965,9.53066631 23.1562442,9.84976652 22.1686999,9.84976652 C21.209928,9.84976652 20.4655572,9.53582974 19.9346593,8.90898886 C19.4028332,8.2811153 19.1373843,7.37648168 19.1373843,6.19612069 Z" id="Path"></path>
                        <path d="M29.6189052,9.62877155 L29.6189052,0.24061602 L30.8022878,0.24061602 L33.7212981,5.94930855 L34.7051298,7.89282507 L34.7719562,7.89282507 C34.6763574,7.12966954 34.628094,6.24052622 34.628094,5.22332974 L34.628094,0.24061602 L35.7010275,0.24061602 L35.7010275,9.62877155 L34.5176449,9.62877155 L31.5986346,3.93247126 L30.6148028,1.98895474 L30.570252,1.98895474 C30.6510004,2.84195402 30.6918387,3.73213003 30.6918387,4.65845007 L30.6918387,9.62877155 L29.6189052,9.62877155 L29.6189052,9.62877155 Z" id="Path"></path>
                        <path d="M40.1551866,9.62877155 L40.1551866,0.24061602 L42.510814,0.24061602 C43.7415319,0.24061602 44.7058726,0.642331178 45.4029082,1.44679418 C46.0999437,2.2502245 46.4479974,3.41509519 46.4479974,4.94140625 C46.4479974,6.36857938 46.1166503,7.50660022 45.4530279,8.35546875 C44.7894055,9.20433728 43.8018612,9.62877155 42.4894667,9.62877155 L40.1551866,9.62877155 Z M41.227192,8.61983657 L42.3437482,8.61983657 C43.2802447,8.61983657 44.0134778,8.32655352 44.5443757,7.73998743 C45.0752736,7.15342134 45.3407226,6.21987249 45.3407226,4.94037356 C45.3407226,2.48774246 44.3494656,1.26194325 42.3660237,1.26194325 L41.227192,1.26194325 L41.227192,8.61983657 L41.227192,8.61983657 Z" id="Shape"></path>
                        <path d="M49.1210497,9.62877155 L52.2396108,0.24061602 L53.5000293,0.24061602 L56.6074526,9.62877155 L55.4463455,9.62877155 L54.6499987,7.05738147 L51.0896414,7.05738147 L50.2821569,9.62877155 L49.1210497,9.62877155 Z M51.3875754,6.09698276 L54.3399988,6.09698276 L53.4443407,3.18067529 C53.3997898,3.03300108 53.3134725,2.74178341 53.1844606,2.30702227 C53.0554487,1.87226114 52.9617062,1.55625898 52.9023051,1.36004849 L52.8364069,1.36004849 C52.7844309,1.54076868 52.694401,1.84437859 52.5653891,2.27087823 C52.4363772,2.69737787 52.3463473,3.00098779 52.2943713,3.18170797 L51.3875754,6.09698276 Z" id="Shape"></path>
                        <polygon id="Path" points="58.5843976 1.26194325 58.5843976 0.24061602 64.699933 0.24061602 64.699933 1.26194325 62.1790962 1.26194325 62.1790962 9.62877155 61.1061626 9.62877155 61.1061626 1.26194325"></polygon>
                        <polygon id="Path" points="68.1581945 9.62877155 68.1581945 0.24061602 69.2311281 0.24061602 69.2311281 9.62877155"></polygon>
                        <path d="M73.1209761,4.94037356 C73.1209761,3.46363147 73.4430418,2.27500898 74.0881013,1.37244073 C74.7331608,0.469872486 75.5935496,0.0185883621 76.6701957,0.0185883621 C77.7542669,0.0185883621 78.6146556,0.469872486 79.25229,1.37244073 C79.8899243,2.27500898 80.2092056,3.46776221 80.2092056,4.9527658 C80.2092056,6.44603089 79.8862118,7.63465338 79.2420804,8.52069864 C78.5970209,9.40674389 77.7403447,9.84976652 76.6711238,9.84976652 C75.5944777,9.84976652 74.734089,9.40467852 74.0890295,8.51450251 C73.44397,7.6253592 73.1209761,6.43363865 73.1209761,4.94037356 Z M74.2273228,4.94037356 C74.2273228,6.13002874 74.4463646,7.07287177 74.8853763,7.76993534 C75.324388,8.46699892 75.9193278,8.81604705 76.6711238,8.81604705 C77.4154946,8.81604705 78.00765,8.47319504 78.4457336,7.78852371 C78.8838171,7.10385237 79.1037871,6.15791128 79.1037871,4.9527658 C79.1037871,3.76414332 78.8903141,2.81407148 78.4624401,2.10461566 C78.0345661,1.39515984 77.4377701,1.03991559 76.6711238,1.03991559 C75.9193278,1.03991559 75.3234599,1.39309447 74.8853763,2.09841954 C74.4463646,2.80374461 74.2273228,3.75175108 74.2273228,4.94037356 Z" id="Shape"></path>
                        <path d="M84.0999818,9.62877155 L84.0999818,0.24061602 L85.2833644,0.24061602 L88.2023747,5.94930855 L89.1862065,7.89282507 L89.2530328,7.89282507 C89.157434,7.12966954 89.1091706,6.24052622 89.1091706,5.22332974 L89.1091706,0.24061602 L90.1821041,0.24061602 L90.1821041,9.62877155 L88.9987215,9.62877155 L86.0797112,3.93247126 L85.0958795,1.98895474 L85.0513286,1.98895474 C85.132077,2.84195402 85.1729153,3.73213003 85.1729153,4.65845007 L85.1729153,9.62877155 L84.0999818,9.62877155 L84.0999818,9.62877155 Z" id="Path"></path>
                    </g>
                </g>
            </g>
        </g>
    </g>
</svg>