<?xml version="1.0" encoding="UTF-8"?>
<svg width="20px" height="14px" viewBox="0 0 20 14" version="1.1" xmlns="http://www.w3.org/2000/svg" xmlns:xlink="http://www.w3.org/1999/xlink">
    <!-- Generator: sketchtool 57.1 (101010) - https://sketch.com -->
    <title>6D9CD222-05A2-4922-A5AF-71C7FB0F47EB</title>
    <desc>Created with sketchtool.</desc>
    <g id="Layouts" stroke="none" stroke-width="1" fill="none" fill-rule="evenodd">
        <g id="tl101" transform="translate(-353.000000, -5529.000000)" fill="#73BEE1">
            <g id="footer" transform="translate(0.000000, 5375.000000)">
                <g id="Youtube" transform="translate(353.000000, 154.000000)">
                    <path d="M8.18181818,10 L8.18181818,3.63636364 C9.69866376,4.70037032 11.2007937,5.75402149 12.7272727,6.824727 C11.2025637,7.88983991 9.70000384,8.93946564 8.18181818,10 M19.9359865,4.75020676 C19.8879501,3.95730777 19.8131849,3.1670892 19.6492754,2.38683055 C19.4725234,1.54562741 19.0182502,0.912764111 18.207487,0.545912189 C17.8032215,0.362994099 17.3656465,0.300808155 16.9283614,0.265228993 C16.0576178,0.194409248 15.1860336,0.119300817 14.3132608,0.0892800169 C12.8603112,0.0392829698 11.406086,-0.00222135083 9.9524696,-6.70695826e-13 C8.38767657,0.00254699056 6.82218779,0.0403551413 5.25852537,0.100029946 C4.34800757,0.134762658 3.43717088,0.216840203 2.5323931,0.324706293 C1.58700034,0.437425369 0.919244767,0.959713934 0.522922529,1.79877273 C0.316716686,2.23534401 0.267462683,2.71288352 0.206873591,3.1826639 C0.0551689407,4.35962599 -0.00257913167,5.5431904 3.9560274e-13,6.72850414 C0.00336381755,8.20053909 0.0565894505,9.67009112 0.317963256,11.1252817 C0.526633249,12.2870641 1.28822944,13.0864808 2.47186199,13.2582539 C3.39136669,13.3916828 4.32362699,13.467017 5.25293031,13.5055869 C6.9273345,13.5750806 8.603768,13.5977372 10.136817,13.6363636 C11.7485738,13.5942104 13.217352,13.5737827 14.6842168,13.5108914 C15.6044172,13.4714467 16.5248786,13.3937425 17.439542,13.2871179 C18.5821827,13.1538865 19.3705656,12.4289293 19.6202275,11.3398853 C19.8600327,10.2939538 19.9163023,9.22813077 19.9676436,8.16216664 C20.0224347,7.02425417 20.0048377,5.88679313 19.9359865,4.75020676" id="Fill-1"></path>
                </g>
            </g>
        </g>
    </g>
</svg>